<svg className = "svgDownloadIconStyle" viewBox="0 0 350 350" x="0px" y="0px">
	<g>
		<path d="M38,87c0,57.831,0,115.662,0,173.492c0,5.985,0.984,11.883,2.75,17.618c4.517,14.676,14.68,26.4,29.371,31.411
			C78.433,312.356,87.278,312,95.926,312c53.852,0,107.703,0,161.555,0c17.165,0,33.851-4.985,44.763-19.186
			c7.324-9.532,8.757-21.645,8.757-33.277c0-9.557,0-19.113,0-28.669c0-31.548,0-63.096,0-94.644
			c0-16.685,0.438-33.436-0.012-50.116c-0.278-10.283-3.479-20.921-9.479-29.301C292.442,44.146,277.679,39,262.525,39
			c-21.264,0-42.526,0-63.79,0c-30.446,0-60.892,0-91.337,0c-13.995,0-27.722-1.016-41.011,4.364C47.916,50.844,38.215,67.326,38,87
			c-0.063,5.806,8.937,5.8,9,0c0.185-16.843,8.516-30.304,24.572-36.019C77.332,48.931,82.294,48,88.058,48
			c22.365,0,44.73,0,67.095,0c30.017,0,60.035,0,90.052,0c5.922,0,11.843,0,17.765,0c15.978,0,29.934,7.29,35.821,22.588
			C303.513,82.855,302,96.793,302,110.141c0,30.813,0,61.626,0,92.439c0,20.1,0,40.2,0,60.3c0,15.937-6.949,29.297-21.601,36.082
			c-5.868,2.718-12.047,4.038-17.874,4.038c-51.709,0-103.418,0-155.127,0c-6.71,0-13.419,0-20.129,0
			C71.823,303,59,296.184,52.01,282.269c-3.005-5.982-5.01-13.504-5.01-19.271c0-0.56,0-1.118,0-1.678c0-52.934,0-105.867,0-158.8
			c0-5.173,0-10.347,0-15.52C47,81.196,38,81.196,38,87z"/>
		<path d="M236.5,201c0,29.333,0,58.667,0,88c0,5.804,9,5.804,9,0c0-29.333,0-58.667,0-88C245.5,195.196,236.5,195.196,236.5,201
			L236.5,201z"/>
		<path d="M192.818,248.182c15,14.667,30,29.334,45,44c4.15,4.059,10.519-2.301,6.363-6.363c-15-14.667-30-29.334-45-44
			C195.031,237.76,188.663,244.119,192.818,248.182L192.818,248.182z"/>
		<path d="M281.818,241.93c-14.667,14.629-29.334,29.259-44,43.889c-4.113,4.102,2.251,10.466,6.363,6.363
			c14.667-14.629,29.334-29.259,44-43.889C292.295,244.191,285.931,237.827,281.818,241.93L281.818,241.93z"/>
		<path d="M128.117,74.147c0,15.512,0,31.023,0,46.535c0,5.804,9,5.804,9,0c0-15.512,0-31.023,0-46.535
			C137.117,68.344,128.117,68.344,128.117,74.147L128.117,74.147z"/>
		<path d="M108.818,100.597c6.873,7.755,13.745,15.511,20.617,23.267c3.856,4.352,10.198-2.037,6.364-6.364
			c-6.873-7.755-13.745-15.511-20.617-23.267C111.326,89.881,104.984,96.27,108.818,100.597L108.818,100.597z"/>
		<path d="M149.593,94.292c-6.719,7.736-13.439,15.472-20.159,23.208c-3.787,4.36,2.551,10.753,6.364,6.364
			c6.719-7.736,13.439-15.472,20.159-23.208C159.744,96.296,153.406,89.903,149.593,94.292L149.593,94.292z"/>
		<path d="M136.658,273.682c0-15.512,0-31.022,0-46.534c0-5.804-9-5.804-9,0c0,15.512,0,31.022,0,46.534
			C127.658,279.485,136.658,279.485,136.658,273.682L136.658,273.682z"/>
		<path d="M155.958,247.232c-6.873-7.756-13.745-15.512-20.617-23.267c-3.856-4.353-10.198,2.037-6.364,6.363
			c6.873,7.756,13.745,15.512,20.617,23.267C153.45,257.948,159.792,251.559,155.958,247.232L155.958,247.232z"/>
		<path d="M115.182,253.537c6.719-7.735,13.438-15.472,20.158-23.208c3.787-4.359-2.552-10.753-6.364-6.363
			c-6.719,7.735-13.438,15.472-20.158,23.208C105.031,251.533,111.37,257.927,115.182,253.537L115.182,253.537z"/>
		<path d="M65,221.5c44.333,0,88.667,0,133,0c3.869,0,3.869-6,0-6c-44.333,0-88.667,0-133,0C61.131,215.5,61.131,221.5,65,221.5
			L65,221.5z"/>
		<path d="M65,133.5c44.333,0,88.667,0,133,0c3.869,0,3.869-6,0-6c-44.333,0-88.667,0-133,0C61.131,127.5,61.131,133.5,65,133.5
			L65,133.5z"/>
		<path d="M175.5,207.081c-29.833,0-59.667,0-89.5,0c0.5,0.5,1,1,1.5,1.5c0-17.693,0-35.387,0-53.081c-0.5,0.5-1,1-1.5,1.5
			c29.833,0,59.667,0,89.5,0c-0.5-0.5-1-1-1.5-1.5c0,17.694,0,35.388,0,53.081c0,1.935,3,1.935,3,0c0-17.693,0-35.387,0-53.081
			c0-0.818-0.683-1.5-1.5-1.5c-29.833,0-59.667,0-89.5,0c-0.818,0-1.5,0.682-1.5,1.5c0,17.694,0,35.388,0,53.081
			c0,0.817,0.682,1.5,1.5,1.5c29.833,0,59.667,0,89.5,0C177.435,210.081,177.435,207.081,175.5,207.081z"/>
		<path d="M182.5,153.375c-34.667,0-69.333,0-104,0c0.375,0.375,0.75,0.75,1.125,1.125c0-5,0-10,0-15
			c-0.375,0.375-0.75,0.75-1.125,1.125c34.667,0,69.333,0,104,0c-0.375-0.375-0.75-0.75-1.125-1.125c0,5,0,10,0,15
			c0,1.451,2.25,1.451,2.25,0c0-5,0-10,0-15c0-0.613-0.512-1.125-1.125-1.125c-34.667,0-69.333,0-104,0
			c-0.613,0-1.125,0.512-1.125,1.125c0,5,0,10,0,15c0,0.613,0.512,1.125,1.125,1.125c34.667,0,69.333,0,104,0
			C183.951,155.625,183.951,153.375,182.5,153.375z"/>
		<path d="M143.5,170.75c-5.807,0-11.613,0-17.42,0c-2.714,0-5.428,0-8.142,0c-0.906,0,0.312-0.077,0.312,0.587
			c0-0.647,0-1.294,0-1.94c0-1.578,0-3.156,0-4.733c0,0.842-1.037,0.587,0.907,0.587c1.404,0,2.809,0,4.213,0c3.85,0,7.7,0,11.55,0
			c2.714,0,5.428,0,8.142,0c0.906,0-0.312,0.077-0.312-0.587c0,0.647,0,1.294,0,1.94c0,1.632,0,3.264,0,4.896
			c0,0.967,1.5,0.967,1.5,0c0-2.333,0-4.667,0-7c0-0.409-0.341-0.75-0.75-0.75c-8.667,0-17.333,0-26,0
			c-0.409,0-0.75,0.341-0.75,0.75c0,2.333,0,4.667,0,7c0,0.409,0.341,0.75,0.75,0.75c8.667,0,17.333,0,26,0
			C144.467,172.25,144.467,170.75,143.5,170.75z"/>
	</g>
</svg>
