<svg className = "svgDownloadIconStyle" viewBox="0 0 350 350" x="0px" y="0px">
	<g>
		<path d="M38,87c0,57.831,0,115.662,0,173.492c0,5.985,0.984,11.883,2.75,17.618c4.517,14.676,14.68,26.4,29.371,31.411
			C78.433,312.356,87.278,312,95.926,312c53.852,0,107.703,0,161.555,0c17.165,0,33.851-4.985,44.763-19.186
			c7.324-9.532,8.757-21.645,8.757-33.277c0-9.557,0-19.113,0-28.669c0-31.548,0-63.096,0-94.644
			c0-16.685,0.438-33.436-0.012-50.116c-0.278-10.283-3.479-20.921-9.479-29.301C292.442,44.146,277.679,39,262.525,39
			c-21.264,0-42.526,0-63.79,0c-30.446,0-60.892,0-91.337,0c-13.995,0-27.722-1.016-41.011,4.364C47.916,50.844,38.215,67.326,38,87
			c-0.063,5.806,8.937,5.8,9,0c0.185-16.843,8.516-30.304,24.572-36.019C77.332,48.931,82.294,48,88.058,48
			c22.365,0,44.73,0,67.095,0c30.017,0,60.035,0,90.052,0c5.922,0,11.843,0,17.765,0c15.978,0,29.934,7.29,35.821,22.588
			C303.513,82.855,302,96.793,302,110.141c0,30.813,0,61.626,0,92.439c0,20.1,0,40.2,0,60.3c0,15.937-6.949,29.297-21.601,36.082
			c-5.868,2.718-12.047,4.038-17.874,4.038c-51.709,0-103.418,0-155.127,0c-6.71,0-13.419,0-20.129,0
			C71.823,303,59,296.184,52.01,282.269c-3.005-5.982-5.01-13.504-5.01-19.271c0-0.56,0-1.118,0-1.678c0-52.934,0-105.867,0-158.8
			c0-5.173,0-10.347,0-15.52C47,81.196,38,81.196,38,87z"/>
		<path d="M236.5,201c0,29.333,0,58.667,0,88c0,5.804,9,5.804,9,0c0-29.333,0-58.667,0-88C245.5,195.196,236.5,195.196,236.5,201
			L236.5,201z"/>
		<path d="M192.818,248.182c15,14.667,30,29.334,45,44c4.15,4.059,10.519-2.301,6.363-6.363c-15-14.667-30-29.334-45-44
			C195.031,237.76,188.663,244.119,192.818,248.182L192.818,248.182z"/>
		<path d="M281.818,241.93c-14.667,14.629-29.334,29.259-44,43.889c-4.113,4.102,2.251,10.466,6.363,6.363
			c14.667-14.629,29.334-29.259,44-43.889C292.295,244.191,285.931,237.827,281.818,241.93L281.818,241.93z"/>
		<path d="M94.687,155.387c7.623,0,13.582,2.72,17.876,8.16c5.118,6.442,7.677,17.125,7.677,32.048c0,14.89-2.577,25.59-7.73,32.104
			c-4.259,5.369-10.2,8.053-17.823,8.053c-7.659,0-13.833-2.943-18.521-8.831c-4.689-5.887-7.033-16.382-7.033-31.485
			c0-14.816,2.577-25.481,7.73-31.996C81.122,158.072,87.063,155.387,94.687,155.387z M94.687,167.896
			c-1.826,0-3.455,0.582-4.885,1.745c-1.432,1.164-2.542,3.248-3.329,6.254c-1.039,3.901-1.557,10.469-1.557,19.701
			c0,9.234,0.464,15.578,1.396,19.031c0.93,3.455,2.102,5.754,3.517,6.898c1.413,1.146,3.033,1.719,4.858,1.719
			c1.825,0,3.453-0.582,4.885-1.746c1.431-1.162,2.541-3.247,3.329-6.254c1.038-3.865,1.557-10.414,1.557-19.648
			c0-9.232-0.465-15.576-1.396-19.03c-0.931-3.453-2.103-5.762-3.516-6.925C98.13,168.478,96.512,167.896,94.687,167.896z"/>
		<path d="M172.423,234.409h-15.199v-57.278c-5.553,5.192-12.098,9.032-19.634,11.521v-13.792c3.966-1.298,8.275-3.759,12.927-7.383
			c4.651-3.624,7.842-7.851,9.573-12.684h12.333V234.409z"/>
		<path d="M91.628,101.93"/>
		<path d="M204.658,83.922l13.986-3.752l7.633,11.811l9.168-12.577l12.878,4.877
			l-0.86,15.249l16.1-5.21l7.167,10.807l-10.584,12.958l16.979,5.538l-0.588,12.438l-17.039,4.49l10.452,14.423l-7.808,9.733
			l-16.372-6.363l-0.021,17.008l-12.473,3.417l-9.071-14.1l-9.273,12.73l-12.737-4.83l0.845-15.459l-13.728,4.443l-7.87-12.082
			l8.824-10.919l-13.279-4.304l0.421-14.528l13.599-3.63l-8.041-11.096l9.303-11.543l12.468,4.845L204.658,83.922z M225.311,114.592
			c-7.938-0.229-14.559,6.02-14.786,13.956c-0.23,7.936,6.02,14.557,13.956,14.786c7.937,0.229,14.555-6.021,14.785-13.957
			C239.494,121.441,233.246,114.821,225.311,114.592z"/>
		<path d="M129.518,61.86l9.538-2.856l5.479,7.965l6.051-8.825l8.947,3.096
			l-0.289,10.496l10.96-3.9l5.138,7.285l-7.015,9.114l11.777,3.469l-0.157,8.558l-11.62,3.423l7.469,9.704l-5.173,6.845l-11.377-4.048
			l0.323,11.688l-8.503,2.596l-6.515-9.51l-6.119,8.932l-8.85-3.066l0.274-10.64l-9.345,3.325l-5.647-8.146l5.847-7.679l-9.21-2.694
			V87l9.274-2.764l-5.746-7.465l6.164-8.117l8.664,3.083L129.518,61.86z M144.318,82.527c-5.458,0-9.884,4.425-9.884,9.884
			s4.425,9.884,9.884,9.884s9.884-4.425,9.884-9.884S149.776,82.527,144.318,82.527z"/>
	</g>
</svg>
