<svg className = "svgDownloadIconStyle" viewBox="0 0 350 350" x="0px" y="0px">
	<g>
		<path style="fill:#808080;" d="M185.561,100.577L207.566,81H285v38h-78L185.561,100.577z M204.14,96.822
			c-1.712,0-3.101,1.388-3.101,3.101s1.389,3.101,3.101,3.101s3.101-1.388,3.101-3.101S205.852,96.822,204.14,96.822z"/>
		<path d="M186.621,101.138c7.084-6.302,14.168-12.604,21.251-18.906C209.337,80.929,206.81,82,208.16,82c1.127,0,2.253,0,3.38,0
			c4.54,0,9.081,0,13.621,0c20.112,0,40.226,0,60.339,0c-0.5-0.5-1-1-1.5-1.5c0,12.667,0,25.333,0,38c0.5-0.5,1-1,1.5-1.5
			c-19.773,0-39.547,0-59.32,0c-4.753,0-9.505,0-14.257,0c-1.297,0-2.593,0-3.89,0c-1.753,0-0.072,0.354-0.271,0.183
			c-7.047-6.055-14.094-12.111-21.141-18.166c-1.459-1.254-3.591,0.858-2.121,2.121c7.102,6.103,14.203,12.205,21.305,18.307
			c1.144,0.983,3.288,0.555,4.679,0.555c4.659,0,9.318,0,13.978,0c20.347,0,40.692,0,61.039,0c0.817,0,1.5-0.682,1.5-1.5
			c0-12.667,0-25.333,0-38c0-0.818-0.683-1.5-1.5-1.5c-20.395,0-40.789,0-61.184,0c-4.412,0-8.824,0-13.235,0
			c-1.567,0-3.604-0.425-4.855,0.689c-7.242,6.442-14.483,12.885-21.726,19.328C183.052,100.305,185.181,102.419,186.621,101.138z"
			/>
		<path d="M204.14,95.322c-2.599,0.14-4.461,2.001-4.601,4.601c-0.14,2.593,2.212,4.472,4.601,4.601
			c2.593,0.14,4.472-2.212,4.601-4.601C208.88,97.329,206.528,95.451,204.14,95.322c-1.934-0.104-1.924,2.896,0,3
			c2.066,0.111,2.066,3.09,0,3.201c-2.067,0.111-2.056-3.09,0-3.201C206.063,98.218,206.073,95.218,204.14,95.322z"/>
		<path d="M38,87c0,57.831,0,115.662,0,173.492c0,5.985,0.984,11.883,2.75,17.618c4.517,14.676,14.68,26.4,29.371,31.411
			C78.433,312.356,87.278,312,95.926,312c53.852,0,107.703,0,161.555,0c17.165,0,33.851-4.985,44.763-19.186
			c7.324-9.532,8.757-21.645,8.757-33.277c0-9.557,0-19.113,0-28.669c0-31.548,0-63.096,0-94.644
			c0-16.685,0.438-33.436-0.012-50.116c-0.278-10.283-3.479-20.921-9.479-29.301C292.442,44.146,277.679,39,262.525,39
			c-21.264,0-42.526,0-63.79,0c-30.446,0-60.892,0-91.337,0c-13.995,0-27.722-1.016-41.011,4.364C47.916,50.844,38.215,67.326,38,87
			c-0.063,5.806,8.937,5.8,9,0c0.185-16.843,8.516-30.304,24.572-36.019C77.332,48.931,82.294,48,88.058,48
			c22.365,0,44.73,0,67.095,0c30.017,0,60.035,0,90.052,0c5.922,0,11.843,0,17.765,0c15.978,0,29.934,7.29,35.821,22.588
			C303.513,82.855,302,96.793,302,110.141c0,30.813,0,61.626,0,92.439c0,20.1,0,40.2,0,60.3c0,15.937-6.949,29.297-21.601,36.082
			c-5.868,2.718-12.047,4.038-17.874,4.038c-51.709,0-103.418,0-155.127,0c-6.71,0-13.419,0-20.129,0
			C71.823,303,59,296.184,52.01,282.269c-3.005-5.982-5.01-13.504-5.01-19.271c0-0.56,0-1.118,0-1.678c0-52.934,0-105.867,0-158.8
			c0-5.173,0-10.347,0-15.52C47,81.196,38,81.196,38,87z"/>
		<path d="M87,263"/>
		<path d="M236.5,201c0,29.333,0,58.667,0,88c0,5.804,9,5.804,9,0c0-29.333,0-58.667,0-88C245.5,195.196,236.5,195.196,236.5,201
			L236.5,201z"/>
		<path d="M192.818,248.182c15,14.667,30,29.334,45,44c4.15,4.059,10.519-2.301,6.363-6.363c-15-14.667-30-29.334-45-44
			C195.031,237.76,188.663,244.119,192.818,248.182L192.818,248.182z"/>
		<path d="M281.818,241.93c-14.667,14.629-29.334,29.259-44,43.889c-4.113,4.102,2.251,10.466,6.363,6.363
			c14.667-14.629,29.334-29.259,44-43.889C292.295,244.191,285.931,237.827,281.818,241.93L281.818,241.93z"/>
		<path d="M184.899,225.191c-38.8,0-77.6,0-116.399,0c0.5,0.5,1,1,1.5,1.5c0-48.141,0-96.28,0-144.42c0-1.59,0-3.181,0-4.771
			c-0.5,0.5-1,1-1.5,1.5c38.8,0,77.6,0,116.399,0c-0.5-0.5-1-1-1.5-1.5c0,48.14,0,96.28,0,144.421c0,1.59,0,3.181,0,4.771
			c0,1.935,3,1.935,3,0c0-48.141,0-96.28,0-144.42c0-1.59,0-3.181,0-4.771c0-0.818-0.683-1.5-1.5-1.5c-38.8,0-77.6,0-116.399,0
			c-0.818,0-1.5,0.682-1.5,1.5c0,48.14,0,96.28,0,144.421c0,1.59,0,3.181,0,4.771c0,0.817,0.682,1.5,1.5,1.5
			c38.8,0,77.6,0,116.399,0C186.834,228.191,186.834,225.191,184.899,225.191z"/>
		<path d="M173.304,202.069c-2.836,0-3.236,1.719-3.236,2.957c0,1.079,0.159,2.157,0.32,3.237c0.159,1.078,0.32,2.196,0.32,3.275
			c0,4.036-2.519,5.474-5.794,5.474h-0.84v-2.196h0.679c2.238-0.04,3.197-1.24,3.197-3.477c0-0.959-0.16-1.879-0.279-2.878
			c-0.161-0.958-0.32-1.957-0.32-3.035c0-2.558,1.119-3.916,2.876-4.356v-0.079c-1.758-0.479-2.876-1.759-2.876-4.315
			c0-1.079,0.159-2.037,0.32-3.036c0.12-0.96,0.279-1.919,0.279-2.838c0-2.158-0.839-3.396-3.157-3.436h-0.719v-2.198h0.799
			c3.396,0,5.834,1.559,5.834,5.233c0,1.12-0.161,2.199-0.32,3.317c-0.161,1.118-0.32,2.237-0.32,3.356
			c0,1.398,0.399,2.957,3.236,2.957V202.069z"/>
		<path d="M83.516,101.124c2.836,0,3.235-1.558,3.235-2.956c0-1.119-0.159-2.239-0.32-3.357c-0.159-1.118-0.32-2.198-0.32-3.317
			c0-3.675,2.438-5.233,5.834-5.233h0.799v2.198h-0.719c-2.318,0.04-3.157,1.278-3.157,3.436c0,0.918,0.16,1.878,0.279,2.837
			c0.161,1,0.32,1.958,0.32,3.037c0,2.556-1.118,3.835-2.876,4.315v0.08c1.758,0.44,2.876,1.798,2.876,4.355
			c0,1.079-0.159,2.078-0.32,3.036c-0.119,0.999-0.279,1.918-0.279,2.878c0,2.236,0.958,3.436,3.197,3.476h0.679v2.197h-0.84
			c-3.275,0-5.794-1.438-5.794-5.474c0-1.079,0.161-2.197,0.32-3.275c0.161-1.08,0.32-2.158,0.32-3.237
			c0-1.238-0.399-2.957-3.235-2.957V101.124z"/>
		<path d="M92.746,133.251c23.776,0,47.552,0,71.328,0c1.935,0,1.935-3,0-3c-23.776,0-47.552,0-71.328,0
			C90.811,130.251,90.811,133.251,92.746,133.251L92.746,133.251z"/>
		<path d="M92.746,161.346c23.776,0,47.552,0,71.328,0c1.935,0,1.935-3,0-3c-23.776,0-47.552,0-71.328,0
			C90.811,158.346,90.811,161.346,92.746,161.346L92.746,161.346z"/>
		<path d="M92.746,175.877c23.776,0,47.552,0,71.328,0c1.935,0,1.935-3,0-3c-23.776,0-47.552,0-71.328,0
			C90.811,172.877,90.811,175.877,92.746,175.877L92.746,175.877z"/>
		<path d="M92.746,147.783c23.776,0,47.552,0,71.328,0c1.935,0,1.935-3,0-3c-23.776,0-47.552,0-71.328,0
			C90.811,144.783,90.811,147.783,92.746,147.783L92.746,147.783z"/>
		<path style="fill:#FFFFFF;stroke:#FFFFFF;stroke-width:3;stroke-miterlimit:10;" d="M225.146,100.122l7.641-5.038v1.455
			l-6.439,4.132v0.041l6.439,4.133v1.454l-7.641-5.038V100.122z"/>
		<path style="fill:#FFFFFF;stroke:#FFFFFF;stroke-width:3;stroke-miterlimit:10;" d="M244.342,107.142l4.595-15.284h1.119
			l-4.61,15.284H244.342z"/>
		<path style="fill:#FFFFFF;stroke:#FFFFFF;stroke-width:3;stroke-miterlimit:10;" d="M262.231,101.281l-7.641,5.018v-1.454
			l6.487-4.133v-0.041l-6.487-4.132v-1.455l7.641,5.017V101.281z"/>
	</g>
</svg>
