<svg className = "svgDownloadIconStyle" viewBox="0 0 350 350" x="0px" y="0px">
	<g>
		<path style="fill:#808080;" d="M67.937,260.52L113.075,226H273v67H111.913L67.937,260.52z M106.046,254.337
			c-3.512,0-6.36,2.452-6.36,5.477c0,3.026,2.848,5.479,6.36,5.479c3.511,0,6.36-2.453,6.36-5.479
			C112.406,256.789,109.557,254.337,106.046,254.337z"/>
		<path d="M68.693,261.383c9.344-7.159,18.688-14.319,28.032-21.479c5.027-3.852,10.053-7.703,15.08-11.556
			c0.894-0.685,2.615-1.348,1.303-1.348c0.587,0,1.175,0,1.762,0c24.38,0,48.76,0,73.14,0c28.308,0,56.614,0,84.921,0
			c-0.5-0.5-1-1-1.5-1.5c0,22.379,0,44.757,0,67.136c0.5-0.5,1-1,1.5-1.5c-49.384,0-98.768,0-148.151,0c-3.966,0-7.933,0-11.899,0
			c-1.648,0,0.058,0.403-0.67-0.136c-2.187-1.618-4.374-3.237-6.561-4.855c-12.319-9.117-24.637-18.234-36.956-27.352
			c-1.557-1.153-3.05,1.453-1.514,2.59c9.549,7.068,19.099,14.136,28.649,21.204c4.727,3.498,9.454,6.997,14.181,10.495
			c1.339,0.991,2.066,1.054,3.683,1.054c24.249,0,48.498,0,72.746,0c28.831,0,57.661,0,86.492,0c0.817,0,1.5-0.683,1.5-1.5
			c0-22.379,0-44.757,0-67.136c0-0.817-0.683-1.5-1.5-1.5c-49.338,0-98.677,0-148.015,0c-3.773,0-7.547,0-11.32,0
			c-2.911,0-6.505,4.21-8.628,5.837c-12.596,9.652-25.192,19.304-37.788,28.956C65.666,259.952,67.158,262.561,68.693,261.383z"/>
		<path d="M106.046,252.837c-4.101,0.204-7.573,2.689-7.86,6.977c-0.287,4.273,4.203,6.798,7.86,6.979
			c4.092,0.203,7.592-2.988,7.86-6.979C114.192,255.541,109.701,253.019,106.046,252.837c-1.935-0.096-1.925,2.904,0,3
			c2.363,0.117,4.686,1.382,4.86,3.977c0.173,2.585-2.754,3.875-4.86,3.979c-2.359,0.117-4.698-1.563-4.86-3.979
			c-0.173-2.584,2.756-3.872,4.86-3.977C107.971,255.741,107.98,252.741,106.046,252.837z"/>
		<path d="M38,87c0,57.831,0,115.662,0,173.492c0,5.985,0.984,11.883,2.75,17.618c4.517,14.676,14.68,26.4,29.371,31.411
			C78.433,312.356,87.278,312,95.926,312c53.852,0,107.703,0,161.555,0c17.165,0,33.851-4.985,44.763-19.186
			c7.324-9.532,8.757-21.645,8.757-33.277c0-9.557,0-19.113,0-28.669c0-31.548,0-63.096,0-94.644
			c0-16.685,0.438-33.436-0.012-50.116c-0.278-10.283-3.479-20.921-9.479-29.301C292.442,44.146,277.679,39,262.525,39
			c-21.264,0-42.526,0-63.79,0c-30.446,0-60.892,0-91.337,0c-13.995,0-27.722-1.016-41.011,4.364C47.916,50.844,38.215,67.326,38,87
			c-0.063,5.806,8.937,5.8,9,0c0.185-16.843,8.516-30.304,24.572-36.019C77.332,48.931,82.294,48,88.058,48
			c22.365,0,44.73,0,67.095,0c30.017,0,60.035,0,90.052,0c5.922,0,11.843,0,17.765,0c15.978,0,29.934,7.29,35.821,22.588
			C303.513,82.855,302,96.793,302,110.141c0,30.813,0,61.626,0,92.439c0,20.1,0,40.2,0,60.3c0,15.937-6.949,29.297-21.601,36.082
			c-5.868,2.718-12.047,4.038-17.874,4.038c-51.709,0-103.418,0-155.127,0c-6.71,0-13.419,0-20.129,0
			C71.823,303,59,296.184,52.01,282.269c-3.005-5.982-5.01-13.504-5.01-19.271c0-0.56,0-1.118,0-1.678c0-52.934,0-105.867,0-158.8
			c0-5.173,0-10.347,0-15.52C47,81.196,38,81.196,38,87z"/>
		<path d="M242.66,85c0,23.571,0,47.142,0,70.713c0,5.804,9,5.804,9,0c0-23.571,0-47.142,0-70.713
			C251.66,79.196,242.66,79.196,242.66,85L242.66,85z"/>
		<path d="M207.818,123.539c12.053,11.786,24.106,23.571,36.16,35.357c4.15,4.058,10.519-2.301,6.363-6.364
			c-12.053-11.786-24.106-23.571-36.16-35.357C210.031,113.116,203.663,119.476,207.818,123.539L207.818,123.539z"/>
		<path d="M279.335,117.264c-11.786,11.756-23.571,23.512-35.356,35.267c-4.113,4.103,2.251,10.466,6.363,6.364
			c11.786-11.756,23.571-23.512,35.356-35.267C289.812,119.526,283.447,113.163,279.335,117.264L279.335,117.264z"/>
		<path d="M184.899,210.167c-37.936,0-75.871,0-113.806,0c0.5,0.5,1,1,1.5,1.5c0-47.217,0-94.434,0-141.651
			c0-0.838,0-1.677,0-2.516c-0.5,0.5-1,1-1.5,1.5c37.936,0,75.871,0,113.806,0c-0.5-0.5-1-1-1.5-1.5c0,47.217,0,94.434,0,141.651
			c0,0.839,0,1.677,0,2.516c0,1.935,3,1.935,3,0c0-47.217,0-94.434,0-141.651c0-0.838,0-1.677,0-2.516c0-0.818-0.683-1.5-1.5-1.5
			c-37.936,0-75.871,0-113.806,0c-0.818,0-1.5,0.682-1.5,1.5c0,47.217,0,94.434,0,141.651c0,0.839,0,1.677,0,2.516
			c0,0.817,0.682,1.5,1.5,1.5c37.936,0,75.871,0,113.806,0C186.834,213.167,186.834,210.167,184.899,210.167z"/>
		<path d="M173.562,187.874c-2.773,0-3.164,1.661-3.164,2.857c0,1.043,0.155,2.085,0.313,3.128c0.156,1.042,0.313,2.123,0.313,3.166
			c0,3.899-2.463,5.289-5.665,5.289h-0.821v-2.122h0.664c2.188-0.039,3.125-1.199,3.125-3.36c0-0.927-0.156-1.815-0.273-2.78
			c-0.157-0.926-0.313-1.892-0.313-2.934c0-2.471,1.094-3.784,2.812-4.209v-0.077c-1.718-0.463-2.812-1.699-2.812-4.17
			c0-1.043,0.155-1.969,0.313-2.934c0.117-0.928,0.273-1.854,0.273-2.742c0-2.086-0.82-3.282-3.087-3.32h-0.703v-2.124h0.782
			c3.321,0,5.705,1.506,5.705,5.058c0,1.082-0.157,2.125-0.313,3.205c-0.157,1.081-0.313,2.162-0.313,3.243
			c0,1.352,0.391,2.857,3.164,2.857V187.874z"/>
		<path d="M85.775,90.329c2.772,0,3.163-1.506,3.163-2.857c0-1.081-0.155-2.163-0.313-3.244c-0.155-1.081-0.313-2.124-0.313-3.205
			c0-3.552,2.384-5.057,5.705-5.057h0.782v2.124h-0.703c-2.267,0.038-3.087,1.235-3.087,3.32c0,0.888,0.156,1.815,0.273,2.742
			c0.157,0.966,0.313,1.892,0.313,2.935c0,2.47-1.093,3.706-2.812,4.169v0.077c1.719,0.425,2.812,1.738,2.812,4.209
			c0,1.042-0.155,2.007-0.313,2.934c-0.117,0.965-0.273,1.854-0.273,2.781c0,2.161,0.937,3.32,3.125,3.358h0.664v2.123h-0.821
			c-3.202,0-5.665-1.389-5.665-5.289c0-1.042,0.158-2.123,0.313-3.165c0.157-1.043,0.313-2.085,0.313-3.128
			c0-1.196-0.391-2.857-3.163-2.857V90.329z"/>
		<path d="M94.799,121.424c23.246,0,46.493,0,69.739,0c1.935,0,1.935-3,0-3c-23.246,0-46.493,0-69.739,0
			C92.864,118.424,92.864,121.424,94.799,121.424L94.799,121.424z"/>
		<path d="M94.799,148.572c23.246,0,46.493,0,69.739,0c1.935,0,1.935-3,0-3c-23.246,0-46.493,0-69.739,0
			C92.864,145.572,92.864,148.572,94.799,148.572L94.799,148.572z"/>
		<path d="M94.799,162.615c23.246,0,46.493,0,69.739,0c1.935,0,1.935-3,0-3c-23.246,0-46.493,0-69.739,0
			C92.864,159.615,92.864,162.615,94.799,162.615L94.799,162.615z"/>
		<path d="M94.799,135.466c23.246,0,46.493,0,69.739,0c1.935,0,1.935-3,0-3c-23.246,0-46.493,0-69.739,0
			C92.864,132.466,92.864,135.466,94.799,135.466L94.799,135.466z"/>
		<path style="fill:#FFFFFF;stroke:#FFFFFF;stroke-width:3;stroke-miterlimit:10;" d="M124.801,258.669l28.183-17.284v4.989
			l-23.752,14.179v0.141l23.752,14.183v4.993l-28.183-17.292V258.669z"/>
		<path style="fill:#FFFFFF;stroke:#FFFFFF;stroke-width:3;stroke-miterlimit:10;" d="M195.603,282.764l16.948-52.451h4.128
			l-17.005,52.451H195.603z"/>
		<path style="fill:#FFFFFF;stroke:#FFFFFF;stroke-width:3;stroke-miterlimit:10;" d="M261.589,262.65l-28.183,17.219v-4.993
			l23.93-14.183v-0.141l-23.93-14.179v-4.989l28.183,17.211V262.65z"/>
	</g>
</svg>
