<svg className = "svgDownloadIconStyle" viewBox="0 0 350 350" x="0px" y="0px">
	<g>
		<path style="fill:#0071BC;" d="M71.561,253.094L116.646,216H276v72H115.486L71.561,253.094z M109.626,247.366
			c-3.507,0-6.353,2.63-6.353,5.876s2.845,5.879,6.353,5.879s6.353-2.633,6.353-5.879S113.133,247.366,109.626,247.366z"/>
		<path d="M72.621,254.596c9.042-7.441,18.084-14.884,27.125-22.326c5.1-4.197,10.2-8.395,15.299-12.592
			c0.881-0.726,1.763-1.451,2.644-2.176c-1.033,0.85-1.136,0.425,0.311,0.425c23.834,0,47.669,0,71.504,0
			c28.938,0,57.876,0,86.813,0c-0.5-0.5-1-1-1.5-1.5c0,24.01,0,48.021,0,72.03c0.5-0.5,1-1,1.5-1.5c-49.327,0-98.653,0-147.98,0
			c-3.961,0-7.923,0-11.885,0c-1.972,0,0.699,0.921-0.532-0.059c-2.227-1.77-4.453-3.539-6.679-5.31
			c-12.208-9.704-24.415-19.409-36.622-29.114c-1.498-1.19-3.635,0.917-2.121,2.121c9.239,7.345,18.478,14.69,27.716,22.035
			c4.843,3.851,9.686,7.7,14.528,11.551c1.364,1.084,2.151,1.775,3.889,1.775c23.438,0,46.876,0,70.314,0c29.79,0,59.581,0,89.371,0
			c0.817,0,1.5-0.683,1.5-1.5c0-24.01,0-48.021,0-72.03c0-0.817-0.683-1.5-1.5-1.5c-49.281,0-98.563,0-147.844,0
			c-3.769,0-7.538,0-11.307,0c-2.912,0-6.59,4.563-8.626,6.237c-12.68,10.437-25.361,20.874-38.041,31.311
			C69.005,253.705,71.14,255.814,72.621,254.596z"/>
		<path d="M109.626,245.866c-4.25,0.212-7.599,3.021-7.853,7.376c-0.253,4.344,3.989,7.187,7.853,7.379
			c4.242,0.212,7.617-3.338,7.853-7.379C117.731,248.898,113.489,246.059,109.626,245.866c-1.935-0.097-1.925,2.904,0,3
			c6.166,0.308,6.165,8.447,0,8.755c-2.542,0.127-4.708-1.897-4.853-4.379c-0.155-2.664,2.539-4.261,4.853-4.376
			C111.551,248.771,111.561,245.77,109.626,245.866z"/>
		<path d="M38,87c0,57.831,0,115.662,0,173.492c0,5.985,0.984,11.883,2.75,17.618c4.517,14.676,14.68,26.4,29.371,31.411
			C78.433,312.356,87.278,312,95.926,312c53.852,0,107.703,0,161.555,0c17.165,0,33.851-4.985,44.763-19.186
			c7.324-9.532,8.757-21.645,8.757-33.277c0-9.557,0-19.113,0-28.669c0-31.548,0-63.096,0-94.644
			c0-16.685,0.438-33.436-0.012-50.116c-0.278-10.283-3.479-20.921-9.479-29.301C292.442,44.146,277.679,39,262.525,39
			c-21.264,0-42.526,0-63.79,0c-30.446,0-60.892,0-91.337,0c-13.995,0-27.722-1.016-41.011,4.364C47.916,50.844,38.215,67.326,38,87
			c-0.063,5.806,8.937,5.8,9,0c0.185-16.843,8.516-30.304,24.572-36.019C77.332,48.931,82.294,48,88.058,48
			c22.365,0,44.73,0,67.095,0c30.017,0,60.035,0,90.052,0c5.922,0,11.843,0,17.765,0c15.978,0,29.934,7.29,35.821,22.588
			C303.513,82.855,302,96.793,302,110.141c0,30.813,0,61.626,0,92.439c0,20.1,0,40.2,0,60.3c0,15.937-6.949,29.297-21.601,36.082
			c-5.868,2.718-12.047,4.038-17.874,4.038c-51.709,0-103.418,0-155.127,0c-6.71,0-13.419,0-20.129,0
			C71.823,303,59,296.184,52.01,282.269c-3.005-5.982-5.01-13.504-5.01-19.271c0-0.56,0-1.118,0-1.678c0-52.934,0-105.867,0-158.8
			c0-5.173,0-10.347,0-15.52C47,81.196,38,81.196,38,87z"/>
		<path d="M235.548,91.287c0,23.196,0,46.393,0,69.589c0,5.804,9,5.804,9,0c0-23.196,0-46.393,0-69.589
			C244.548,85.483,235.548,85.483,235.548,91.287L235.548,91.287z"/>
		<path d="M201.492,129.264c11.791,11.598,23.582,23.196,35.374,34.794c4.139,4.071,10.506-2.29,6.363-6.364
			c-11.791-11.598-23.582-23.196-35.374-34.794C203.717,118.828,197.35,125.189,201.492,129.264L201.492,129.264z"/>
		<path d="M271.454,122.987c-11.529,11.569-23.059,23.138-34.588,34.707c-4.101,4.114,2.263,10.479,6.363,6.364
			c11.529-11.569,23.059-23.138,34.588-34.707C281.918,125.237,275.555,118.873,271.454,122.987L271.454,122.987z"/>
		<path d="M176,201.151c-32.01,0-64.021,0-96.031,0c0.5,0.5,1,1,1.5,1.5c0-42.884,0-85.768,0-128.651c-0.5,0.5-1,1-1.5,1.5
			c32.01,0,64.021,0,96.031,0c-0.5-0.5-1-1-1.5-1.5c0,42.884,0,85.768,0,128.651c0,1.935,3,1.935,3,0c0-42.884,0-85.768,0-128.651
			c0-0.818-0.683-1.5-1.5-1.5c-32.01,0-64.021,0-96.031,0c-0.818,0-1.5,0.682-1.5,1.5c0,42.884,0,85.768,0,128.651
			c0,0.817,0.682,1.5,1.5,1.5c32.01,0,64.021,0,96.031,0C177.935,204.151,177.935,201.151,176,201.151z"/>
		<path d="M91.746,120.251c23.776,0,47.552,0,71.328,0c1.935,0,1.935-3,0-3c-23.776,0-47.552,0-71.328,0
			C89.811,117.251,89.811,120.251,91.746,120.251L91.746,120.251z"/>
		<path d="M91.746,148.346c23.776,0,47.552,0,71.328,0c1.935,0,1.935-3,0-3c-23.776,0-47.552,0-71.328,0
			C89.811,145.346,89.811,148.346,91.746,148.346L91.746,148.346z"/>
		<path d="M91.746,162.877c23.776,0,47.552,0,71.328,0c1.935,0,1.935-3,0-3c-23.776,0-47.552,0-71.328,0
			C89.811,159.877,89.811,162.877,91.746,162.877L91.746,162.877z"/>
		<path d="M91.746,134.783c23.776,0,47.552,0,71.328,0c1.935,0,1.935-3,0-3c-23.776,0-47.552,0-71.328,0
			C89.811,131.783,89.811,134.783,91.746,134.783L91.746,134.783z"/>
		<path style="fill:#FFFFFF;" d="M132,224.907h16.824c3.795,0,6.687,0.339,8.678,1.019c2.676,0.92,4.967,2.557,6.874,4.904
			c1.907,2.351,3.358,5.228,4.354,8.63c0.995,3.403,1.493,7.6,1.493,12.59c0,4.384-0.466,8.162-1.398,11.334
			c-1.141,3.877-2.768,7.015-4.883,9.409c-1.599,1.817-3.753,3.236-6.471,4.252c-2.03,0.75-4.746,1.126-8.148,1.126H132V224.907z
			M141.205,233.919v35.28h6.874c2.57,0,4.427-0.173,5.567-0.511c1.494-0.438,2.731-1.176,3.716-2.216
			c0.985-1.039,1.788-2.756,2.41-5.141s0.935-5.64,0.935-9.756c0-4.117-0.313-7.279-0.935-9.482s-1.493-3.926-2.612-5.159
			c-1.12-1.234-2.539-2.071-4.261-2.508c-1.286-0.339-3.803-0.508-7.556-0.508H141.205z"/>
		<path style="fill:#FFFFFF;" d="M176.164,251.865c0-5.424,0.695-9.978,2.083-13.66c1.038-2.711,2.452-5.145,4.246-7.301
			c1.793-2.157,3.758-3.757,5.894-4.797c2.842-1.402,6.115-2.107,9.829-2.107c6.716,0,12.091,2.434,16.126,7.301
			c4.032,4.87,6.05,11.643,6.05,20.313c0,8.599-2.002,15.327-6.005,20.183c-4.001,4.854-9.35,7.285-16.047,7.285
			c-6.779,0-12.173-2.418-16.174-7.248C178.166,266.999,176.164,260.345,176.164,251.865z M185.65,251.502
			c0,6.033,1.19,10.605,3.577,13.716c2.383,3.113,5.412,4.67,9.08,4.67c3.672,0,6.682-1.544,9.036-4.633
			c2.353-3.089,3.529-7.72,3.529-13.895c0-6.104-1.146-10.657-3.437-13.663c-2.291-3.003-5.333-4.504-9.129-4.504
			c-3.795,0-6.853,1.52-9.175,4.56C186.813,240.792,185.65,245.377,185.65,251.502z"/>
		<path style="fill:#FFFFFF;" d="M256.749,258.591l8.926,3.304c-1.369,5.815-3.645,10.132-6.826,12.953
			c-3.185,2.821-7.222,4.233-12.115,4.233c-6.055,0-11.03-2.418-14.928-7.248c-3.9-4.834-5.85-11.439-5.85-19.82
			c0-8.867,1.96-15.752,5.879-20.656S240.908,224,247.294,224c5.576,0,10.108,1.926,13.59,5.775c2.073,2.279,3.63,5.55,4.667,9.811
			l-9.115,2.545c-0.537-2.763-1.661-4.941-3.373-6.541c-1.71-1.6-3.79-2.396-6.237-2.396c-3.379,0-6.12,1.418-8.225,4.248
			c-2.104,2.837-3.157,7.428-3.157,13.771c0,6.734,1.037,11.531,3.109,14.387c2.073,2.861,4.771,4.288,8.089,4.288
			c2.443,0,4.551-0.907,6.313-2.726C254.716,265.347,255.98,262.489,256.749,258.591z"/>
		<path d="M92,101.5c15.667,0,31.333,0,47,0c3.869,0,3.869-6,0-6c-15.667,0-31.333,0-47,0C88.131,95.5,88.131,101.5,92,101.5
			L92,101.5z"/>
		<path d="M125,186c15.667,0,31.333,0,47,0c1.935,0,1.935-3,0-3c-15.667,0-31.333,0-47,0C123.065,183,123.065,186,125,186L125,186z"
			/>
	</g>
</svg>
