<svg className = "svgDownloadIconStyle" viewBox="0 0 350 350" x="0px" y="0px">
	<g>
		<path d="M36.5,87c0,57.831,0,115.662,0,173.492c0,6.115,1,12.16,2.803,18.017c4.677,15.197,15.216,27.273,30.419,32.459
			c8.438,2.878,17.424,2.532,26.204,2.532c53.852,0,107.703,0,161.555,0c17.74,0,34.806-5.285,46.058-19.928
			c7.476-9.729,8.962-22.16,8.962-34.035c0-9.557,0-19.113,0-28.669c0-31.548,0-63.096,0-94.644c0-16.685,0.438-33.436-0.012-50.116
			c-0.285-10.53-3.537-21.474-9.684-30.058C293.418,42.941,278.253,37.5,262.525,37.5c-21.264,0-42.526,0-63.79,0
			c-30.446,0-60.892,0-91.337,0c-14.114,0-28.006-1.009-41.409,4.418C46.884,49.654,36.724,66.596,36.5,87
			c-0.085,7.742,11.916,7.733,12,0c0.177-16.18,8.129-29.112,23.471-34.572c6.442-2.293,10.163-2.928,16.086-2.928
			c22.365,0,44.73,0,67.095,0c30.017,0,60.035,0,90.052,0c5.922,0,11.843,0,17.765,0c15.317,0,28.783,6.958,34.375,21.487
			c0.966,2.509,1.674,5.116,2.239,7.742c0.237,1.102,0.425,2.214,0.595,3.328c-0.212-1.385,0.148,1.449,0.192,1.974
			c0.103,1.236,0.129,2.47,0.129,3.708c0,7.467,0,14.935,0,22.402c0,30.813,0,61.626,0,92.439c0,20.1,0,40.2,0,60.3
			c0,15.46-6.668,28.216-20.858,34.786c-2.077,0.963-4.746,1.763-7.164,2.396c-1.149,0.302-2.313,0.548-3.479,0.775
			c-0.519,0.101-1.04,0.188-1.562,0.274c-1.761,0.292,0.23-0.008-0.684,0.104c-1.403,0.171-2.815,0.283-4.229,0.283
			c-51.709,0-103.418,0-155.127,0c-6.71,0-13.419,0-20.129,0c-14.953,0-27.204-6.531-33.963-19.988
			c-2.291-4.56-3.648-9.805-4.472-14.921c-0.283-1.757,0.051,0.71-0.161-1.272c-0.057-0.537-0.101-1.076-0.137-1.615
			c-0.016-0.233-0.036-0.471-0.036-0.705c0-0.56,0-1.118,0-1.678c0-52.934,0-105.867,0-158.8c0-5.173,0-10.347,0-15.52
			C48.5,79.262,36.5,79.262,36.5,87z"/>
		<polygon points="65.875,220.223 196,220.5 131.375,131.723 	"/>
		<path d="M65.875,223.223c43.375,0.093,86.75,0.185,130.125,0.277c2.103,0.005,3.969-2.621,2.591-4.514
			c-21.542-29.593-43.083-59.186-64.625-88.778c-1.403-1.927-3.774-1.901-5.181,0c-21.833,29.5-43.667,59-65.5,88.5
			c-2.305,3.114,2.906,6.101,5.181,3.027c21.833-29.5,43.667-59,65.5-88.5c-1.727,0-3.454,0-5.181,0
			c21.542,29.592,43.083,59.185,64.624,88.777c0.864-1.504,1.728-3.009,2.591-4.514c-43.375-0.093-86.75-0.185-130.125-0.277
			C62.006,217.215,62.007,223.215,65.875,223.223z"/>
		<path d="M236.5,201c0,29.333,0,58.667,0,88c0,5.804,9,5.804,9,0c0-29.333,0-58.667,0-88C245.5,195.196,236.5,195.196,236.5,201
			L236.5,201z"/>
		<path d="M192.818,248.182c15,14.667,30,29.334,45,44c4.15,4.059,10.519-2.301,6.363-6.363c-15-14.667-30-29.334-45-44
			C195.031,237.76,188.663,244.119,192.818,248.182L192.818,248.182z"/>
		<path d="M281.818,241.93c-14.667,14.629-29.334,29.259-44,43.889c-4.113,4.102,2.251,10.466,6.363,6.363
			c14.667-14.629,29.334-29.259,44-43.889C292.295,244.191,285.931,237.827,281.818,241.93L281.818,241.93z"/>
		<circle cx="206.856" cy="129.644" r="36.144"/>
	</g>
</svg>
