<svg className = "svgDownloadIconStyle" viewBox="0 0 350 350" x="0px" y="0px">
	<g>
		<path d="M38,87c0,57.831,0,115.662,0,173.492c0,5.985,0.984,11.883,2.75,17.618c4.517,14.676,14.68,26.4,29.371,31.411
			C78.433,312.356,87.278,312,95.926,312c53.852,0,107.703,0,161.555,0c17.165,0,33.851-4.985,44.763-19.186
			c7.324-9.532,8.757-21.645,8.757-33.277c0-9.557,0-19.113,0-28.669c0-31.548,0-63.096,0-94.644
			c0-16.685,0.438-33.436-0.012-50.116c-0.278-10.283-3.479-20.921-9.479-29.301C292.442,44.146,277.679,39,262.525,39
			c-21.264,0-42.526,0-63.79,0c-30.446,0-60.892,0-91.337,0c-13.995,0-27.722-1.016-41.011,4.364C47.916,50.844,38.215,67.326,38,87
			c-0.063,5.806,8.937,5.8,9,0c0.185-16.843,8.516-30.304,24.572-36.019C77.332,48.931,82.294,48,88.058,48
			c22.365,0,44.73,0,67.095,0c30.017,0,60.035,0,90.052,0c5.922,0,11.843,0,17.765,0c15.978,0,29.934,7.29,35.821,22.588
			C303.513,82.855,302,96.793,302,110.141c0,30.813,0,61.626,0,92.439c0,20.1,0,40.2,0,60.3c0,15.937-6.949,29.297-21.601,36.082
			c-5.868,2.718-12.047,4.038-17.874,4.038c-51.709,0-103.418,0-155.127,0c-6.71,0-13.419,0-20.129,0
			C71.823,303,59,296.184,52.01,282.269c-3.005-5.982-5.01-13.504-5.01-19.271c0-0.56,0-1.118,0-1.678c0-52.934,0-105.867,0-158.8
			c0-5.173,0-10.347,0-15.52C47,81.196,38,81.196,38,87z"/>
		<path d="M209.32,115c0,41.736,0,83.473,0,125.209c0,5.804,9,5.804,9,0c0-41.736,0-83.473,0-125.209
			C218.32,109.196,209.32,109.196,209.32,115L209.32,115z"/>
		<path d="M153.182,180.786c19.152,20.868,38.304,41.736,57.457,62.604c3.932,4.285,10.279-2.097,6.363-6.363
			c-19.151-20.868-38.304-41.736-57.456-62.605C155.614,170.138,149.267,176.52,153.182,180.786L153.182,180.786z"/>
		<path d="M266.818,174.581c-18.727,20.816-37.453,41.631-56.18,62.447c-3.87,4.301,2.475,10.687,6.363,6.363
			c18.727-20.815,37.453-41.631,56.18-62.446C277.052,176.644,270.707,170.257,266.818,174.581L266.818,174.581z"/>
		<path d="M101.518,208.813l-6.953-70.863v-32.765h28.955v32.765l-6.858,70.863H101.518z M95.708,244.814v-26.764h26.764v26.764
			H95.708z"/>
	</g>
</svg>
