<svg className = "svgDownloadIconStyle" viewBox="0 0 350 350" x="0px" y="0px">
	<g>
		<path style="fill:#C1272D;" d="M70.561,253.568L116.093,217H277v71H114.921L70.561,253.568z M109.003,247.429
			c-3.542,0-6.416,2.568-6.416,5.736c0,3.17,2.873,5.739,6.416,5.739c3.542,0,6.415-2.569,6.415-5.739
			C115.418,249.997,112.544,247.429,109.003,247.429z"/>
		<path d="M71.621,254.513c9.131-7.266,18.263-14.53,27.394-21.796c5.15-4.098,10.301-8.195,15.451-12.293
			c0.89-0.708,1.78-1.417,2.67-2.125c-1.067,0.85-1.115,0.426,0.303,0.426c23.765,0,47.531,0,71.296,0c29.536,0,59.073,0,88.61,0
			c-0.5-0.5-1-1-1.5-1.5c0,23.439,0,46.879,0,70.318c0.5-0.5,1-1,1.5-1.5c-49.495,0-98.989,0-148.484,0c-4.202,0-8.404,0-12.606,0
			c-0.377,0-0.755,0-1.132,0c-0.642,0,0.987,0.536,0.263-0.02c-2.018-1.551-4.036-3.103-6.055-4.653
			c-12.671-9.737-25.342-19.476-38.014-29.213c-1.534-1.18-3.025,1.429-1.514,2.59c9.48,7.286,18.96,14.571,28.44,21.856
			c4.833,3.715,9.667,7.43,14.501,11.145c1.385,1.064,2.029,1.295,3.719,1.295c23.897,0,47.795,0,71.692,0c29.73,0,59.46,0,89.189,0
			c0.817,0,1.5-0.683,1.5-1.5c0-23.439,0-46.879,0-70.318c0-0.817-0.683-1.5-1.5-1.5c-49.456,0-98.912,0-148.368,0
			c-4.078,0-8.155,0-12.233,0c-2.884,0-6.188,3.999-8.254,5.644C95.494,231.71,82.497,242.051,69.5,252.392
			C67.986,253.596,70.124,255.704,71.621,254.513z"/>
		<path d="M109.003,245.929c-4.215,0.218-7.634,2.876-7.916,7.236c-0.281,4.348,4.129,7.044,7.916,7.239
			c4.206,0.217,7.654-3.198,7.915-7.239C117.198,248.818,112.788,246.124,109.003,245.929c-1.934-0.1-1.925,2.9,0,3
			c2.497,0.129,4.743,1.564,4.915,4.236c0.172,2.664-2.679,4.124-4.915,4.239c-2.493,0.129-4.755-1.758-4.916-4.239
			c-0.172-2.663,2.681-4.121,4.916-4.236C110.928,248.829,110.937,245.829,109.003,245.929z"/>
		<path d="M38,87c0,57.831,0,115.662,0,173.492c0,5.985,0.984,11.883,2.75,17.618c4.517,14.676,14.68,26.4,29.371,31.411
			C78.433,312.356,87.278,312,95.926,312c53.852,0,107.703,0,161.555,0c17.165,0,33.851-4.985,44.763-19.186
			c7.324-9.532,8.757-21.645,8.757-33.277c0-9.557,0-19.113,0-28.669c0-31.548,0-63.096,0-94.644
			c0-16.685,0.438-33.436-0.012-50.116c-0.278-10.283-3.479-20.921-9.479-29.301C292.442,44.146,277.679,39,262.525,39
			c-21.264,0-42.526,0-63.79,0c-30.446,0-60.892,0-91.337,0c-13.995,0-27.722-1.016-41.011,4.364C47.916,50.844,38.215,67.326,38,87
			c-0.063,5.806,8.937,5.8,9,0c0.185-16.843,8.516-30.304,24.572-36.019C77.332,48.931,82.294,48,88.058,48
			c22.365,0,44.73,0,67.095,0c30.017,0,60.035,0,90.052,0c5.922,0,11.843,0,17.765,0c15.978,0,29.934,7.29,35.821,22.588
			C303.513,82.855,302,96.793,302,110.141c0,30.813,0,61.626,0,92.439c0,20.1,0,40.2,0,60.3c0,15.937-6.949,29.297-21.601,36.082
			c-5.868,2.718-12.047,4.038-17.874,4.038c-51.709,0-103.418,0-155.127,0c-6.71,0-13.419,0-20.129,0
			C71.823,303,59,296.184,52.01,282.269c-3.005-5.982-5.01-13.504-5.01-19.271c0-0.56,0-1.118,0-1.678c0-52.934,0-105.867,0-158.8
			c0-5.173,0-10.347,0-15.52C47,81.196,38,81.196,38,87z"/>
		<path d="M239.551,94c0,22.196,0,44.393,0,66.589c0,5.804,9,5.804,9,0c0-22.196,0-44.393,0-66.589
			C248.551,88.196,239.551,88.196,239.551,94L239.551,94z"/>
		<path d="M206.818,130.477c11.35,11.098,22.7,22.196,34.051,33.294c4.15,4.058,10.519-2.301,6.363-6.364
			c-11.35-11.098-22.7-22.196-34.051-33.294C209.031,120.054,202.663,126.414,206.818,130.477L206.818,130.477z"/>
		<path d="M274.164,124.197c-11.099,11.07-22.197,22.14-33.295,33.21c-4.113,4.103,2.251,10.466,6.363,6.364
			c11.099-11.07,22.197-22.14,33.295-33.21C284.641,126.458,278.276,120.095,274.164,124.197L274.164,124.197z"/>
		<path d="M177,201.725c-34.016,0-68.031,0-102.046,0c0.5,0.5,1,1,1.5,1.5c0-43.075,0-86.15,0-129.225c-0.5,0.5-1,1-1.5,1.5
			c34.016,0,68.031,0,102.046,0c-0.5-0.5-1-1-1.5-1.5c0,43.075,0,86.15,0,129.225c0,1.935,3,1.935,3,0c0-43.075,0-86.15,0-129.225
			c0-0.818-0.683-1.5-1.5-1.5c-34.016,0-68.031,0-102.046,0c-0.818,0-1.5,0.682-1.5,1.5c0,43.075,0,86.15,0,129.225
			c0,0.817,0.682,1.5,1.5,1.5c34.016,0,68.031,0,102.046,0C178.935,204.725,178.935,201.725,177,201.725z"/>
		<path d="M92.746,120.251c23.776,0,47.552,0,71.328,0c1.935,0,1.935-3,0-3c-23.776,0-47.552,0-71.328,0
			C90.811,117.251,90.811,120.251,92.746,120.251L92.746,120.251z"/>
		<path d="M92.746,148.346c23.776,0,47.552,0,71.328,0c1.935,0,1.935-3,0-3c-23.776,0-47.552,0-71.328,0
			C90.811,145.346,90.811,148.346,92.746,148.346L92.746,148.346z"/>
		<path d="M92.746,162.877c23.776,0,47.552,0,71.328,0c1.935,0,1.935-3,0-3c-23.776,0-47.552,0-71.328,0
			C90.811,159.877,90.811,162.877,92.746,162.877L92.746,162.877z"/>
		<path d="M92.746,134.783c23.776,0,47.552,0,71.328,0c1.935,0,1.935-3,0-3c-23.776,0-47.552,0-71.328,0
			C90.811,131.783,90.811,134.783,92.746,134.783L92.746,134.783z"/>
		<path d="M93,101.5c15.667,0,31.333,0,47,0c3.869,0,3.869-6,0-6c-15.667,0-31.333,0-47,0C89.131,95.5,89.131,101.5,93,101.5
			L93,101.5z"/>
		<path d="M126,186c15.667,0,31.333,0,47,0c1.935,0,1.935-3,0-3c-15.667,0-31.333,0-47,0C124.065,183,124.065,186,126,186L126,186z"
			/>
		<path style="fill:#FFFFFF;" d="M128.41,278.628v-52.243h17.281c6.549,0,10.818,0.26,12.806,0.784
			c3.058,0.783,5.615,2.488,7.677,5.112c2.062,2.626,3.091,6.017,3.091,10.177c0,3.206-0.595,5.901-1.781,8.087
			c-1.19,2.187-2.7,3.904-4.531,5.151s-3.692,2.074-5.584,2.476c-2.57,0.497-6.293,0.748-11.169,0.748h-7.021v19.708H128.41z
			M139.178,235.222v14.826h5.893c4.244,0,7.083-0.272,8.516-0.821c1.43-0.544,2.552-1.4,3.366-2.566
			c0.811-1.162,1.217-2.518,1.217-4.063c0-1.898-0.57-3.466-1.71-4.703c-1.141-1.232-2.583-2.005-4.33-2.315
			c-1.285-0.238-3.868-0.356-7.749-0.356H139.178z"/>
		<path style="fill:#FFFFFF;" d="M178.07,226.385h19.682c4.438,0,7.821,0.332,10.151,0.996c3.129,0.906,5.807,2.506,8.041,4.813
			c2.231,2.304,3.927,5.126,5.092,8.465c1.165,3.336,1.747,7.451,1.747,12.348c0,4.299-0.545,8.006-1.636,11.116
			c-1.335,3.804-3.239,6.88-5.715,9.231c-1.867,1.781-4.389,3.17-7.565,4.17c-2.377,0.736-5.555,1.104-9.533,1.104H178.07V226.385z
			M188.839,235.222v34.605h8.04c3.009,0,5.178-0.169,6.513-0.501c1.747-0.429,3.196-1.153,4.349-2.173
			c1.149-1.021,2.09-2.703,2.817-5.042c0.73-2.343,1.094-5.531,1.094-9.57s-0.363-7.137-1.094-9.301
			c-0.728-2.162-1.745-3.85-3.055-5.061c-1.31-1.21-2.971-2.031-4.983-2.46c-1.504-0.332-4.453-0.498-8.843-0.498H188.839z"/>
		<path style="fill:#FFFFFF;" d="M231.986,278.628v-52.243h36.564v8.837h-25.793v12.368h22.265v8.836h-22.265v22.202H231.986z"/>
	</g>
</svg>
