<svg className = "svgDownloadIconStyle" viewBox="0 0 350 350" x="0px" y="0px">
	<g>
		<path style="fill:#F7931E;" d="M72.561,258.082L116.991,221H274v72H115.847L72.561,258.082z M110.072,251.84
			c-3.457,0-6.26,2.603-6.26,5.813c0,3.213,2.804,5.817,6.26,5.817s6.26-2.604,6.26-5.817
			C116.333,254.442,113.529,251.84,110.072,251.84z"/>
		<path d="M73.621,259.005c9.053-7.481,18.105-14.963,27.157-22.444c4.99-4.124,9.98-8.248,14.97-12.372
			c0.566-0.468,1.132-0.936,1.698-1.403c0.926-0.766,0.502-0.061-0.448-0.061c0.525,0,1.049,0,1.574,0c24.204,0,48.409,0,72.613,0
			c27.718,0,55.437,0,83.154,0c-0.5-0.5-1-1-1.5-1.5c0,23.759,0,47.517,0,71.275c0.5-0.5,1-1,1.5-1.5c-49.221,0-98.442,0-147.663,0
			c-3.436,0-6.871,0-10.306,0c-1.025,0,1.299,1.049-0.568-0.441c-2.285-1.824-4.57-3.648-6.855-5.473
			c-11.776-9.4-23.552-18.802-35.328-28.202c-1.496-1.194-3.633,0.914-2.121,2.121c9.25,7.385,18.501,14.77,27.752,22.154
			c4.716,3.766,9.433,7.531,14.15,11.297c1.36,1.085,2.099,1.544,3.812,1.544c23.963,0,47.927,0,71.891,0
			c28.412,0,56.823,0,85.235,0c0.817,0,1.5-0.683,1.5-1.5c0-23.759,0-47.517,0-71.275c0-0.817-0.683-1.5-1.5-1.5
			c-49.014,0-98.028,0-147.042,0c-3.336,0-6.673,0-10.01,0c-2.849,0-7.06,5.151-9.032,6.781
			c-12.252,10.126-24.504,20.252-36.756,30.378C70.007,258.117,72.142,260.228,73.621,259.005z"/>
		<path d="M110.072,250.34c-4.21,0.211-7.51,3.006-7.76,7.313c-0.25,4.298,3.93,7.126,7.76,7.317c4.203,0.21,7.529-3.321,7.76-7.317
			C118.082,253.356,113.901,250.531,110.072,250.34c-1.935-0.097-1.925,2.903,0,3c6.053,0.303,6.052,8.328,0,8.631
			c-2.504,0.125-4.619-1.88-4.76-4.317c-0.152-2.617,2.481-4.199,4.76-4.313C111.998,253.243,112.007,250.243,110.072,250.34z"/>
		<path d="M38,87c0,57.831,0,115.662,0,173.492c0,5.985,0.984,11.883,2.75,17.618c4.517,14.676,14.68,26.4,29.371,31.411
			C78.433,312.356,87.278,312,95.926,312c53.852,0,107.703,0,161.555,0c17.165,0,33.851-4.985,44.763-19.186
			c7.324-9.532,8.757-21.645,8.757-33.277c0-9.557,0-19.113,0-28.669c0-31.548,0-63.096,0-94.644
			c0-16.685,0.438-33.436-0.012-50.116c-0.278-10.283-3.479-20.921-9.479-29.301C292.442,44.146,277.679,39,262.525,39
			c-21.264,0-42.526,0-63.79,0c-30.446,0-60.892,0-91.337,0c-13.995,0-27.722-1.016-41.011,4.364C47.916,50.844,38.215,67.326,38,87
			c-0.063,5.806,8.937,5.8,9,0c0.185-16.843,8.516-30.304,24.572-36.019C77.332,48.931,82.294,48,88.058,48
			c22.365,0,44.73,0,67.095,0c30.017,0,60.035,0,90.052,0c5.922,0,11.843,0,17.765,0c15.978,0,29.934,7.29,35.821,22.588
			C303.513,82.855,302,96.793,302,110.141c0,30.813,0,61.626,0,92.439c0,20.1,0,40.2,0,60.3c0,15.937-6.949,29.297-21.601,36.082
			c-5.868,2.718-12.047,4.038-17.874,4.038c-51.709,0-103.418,0-155.127,0c-6.71,0-13.419,0-20.129,0
			C71.823,303,59,296.184,52.01,282.269c-3.005-5.982-5.01-13.504-5.01-19.271c0-0.56,0-1.118,0-1.678c0-52.934,0-105.867,0-158.8
			c0-5.173,0-10.347,0-15.52C47,81.196,38,81.196,38,87z"/>
		<path d="M239.563,82.124c0,23.958,0,47.917,0,71.876c0,5.804,9,5.804,9,0c0-23.958,0-47.917,0-71.876
			C248.563,76.32,239.563,76.32,239.563,82.124L239.563,82.124z"/>
		<path d="M204.126,121.244c12.251,11.979,24.503,23.958,36.755,35.938c4.15,4.058,10.519-2.301,6.363-6.364
			c-12.251-11.979-24.503-23.958-36.755-35.938C206.339,110.822,199.971,117.181,204.126,121.244L204.126,121.244z"/>
		<path d="M276.818,114.971c-11.979,11.949-23.959,23.898-35.938,35.847c-4.113,4.103,2.251,10.466,6.363,6.364
			c11.979-11.949,23.959-23.898,35.938-35.847C287.295,117.232,280.931,110.869,276.818,114.971L276.818,114.971z"/>
		<path d="M184.899,160.663c-38.8,0-77.6,0-116.399,0c0.5,0.5,1,1,1.5,1.5c0-28.221,0-56.442,0-84.663c-0.5,0.5-1,1-1.5,1.5
			c38.8,0,77.6,0,116.399,0c-0.5-0.5-1-1-1.5-1.5c0,28.221,0,56.442,0,84.663c0,1.935,3,1.935,3,0c0-28.221,0-56.442,0-84.663
			c0-0.818-0.683-1.5-1.5-1.5c-38.8,0-77.6,0-116.399,0c-0.818,0-1.5,0.682-1.5,1.5c0,28.221,0,56.442,0,84.663
			c0,0.818,0.682,1.5,1.5,1.5c38.8,0,77.6,0,116.399,0C186.834,163.663,186.834,160.663,184.899,160.663z"/>
		<path d="M125.404,162.406c-10.338,14.457-20.676,28.914-31.014,43.372c-1.127,1.577,1.476,3.072,2.591,1.514
			c10.338-14.457,20.676-28.914,31.014-43.372C129.123,162.343,126.519,160.847,125.404,162.406L125.404,162.406z"/>
		<path d="M125,163c0,14.512,0,29.023,0,43.535c0,1.935,3,1.935,3,0c0-14.512,0-29.023,0-43.535C128,161.065,125,161.065,125,163
			L125,163z"/>
		<path d="M125.205,163.757c8.03,14.512,16.06,29.023,24.089,43.535c0.937,1.693,3.528,0.18,2.591-1.514
			c-8.03-14.512-16.06-29.023-24.089-43.535C126.858,160.55,124.268,162.063,125.205,163.757L125.205,163.757z"/>
		<path style="fill:none;stroke-miterlimit:10;" d="M151.124,119.916c0,13.059-10.586,23.645-23.645,23.645
			c-13.059,0-23.645-10.586-23.645-23.645c0-13.059,10.586-23.645,23.645-23.645 M127.5,120V96V120z M151.124,119.916L127.5,120"/>
		<path style="fill:#FFFFFF;" d="M128.479,285.091v-54.362h17.142c6.495,0,10.728,0.27,12.701,0.813
			c3.034,0.816,5.569,2.591,7.614,5.322c2.045,2.732,3.069,6.259,3.069,10.587c0,3.337-0.589,6.146-1.768,8.419
			c-1.179,2.271-2.679,4.058-4.495,5.355c-1.815,1.3-3.661,2.159-5.539,2.582c-2.548,0.517-6.242,0.776-11.076,0.776h-6.965v20.507
			H128.479z M139.162,239.923v15.426h5.846c4.209,0,7.024-0.283,8.444-0.853c1.417-0.569,2.53-1.456,3.337-2.667
			c0.806-1.212,1.208-2.621,1.208-4.228c0-1.979-0.565-3.609-1.696-4.897c-1.131-1.285-2.56-2.089-4.292-2.41
			c-1.277-0.248-3.84-0.371-7.688-0.371H139.162z"/>
		<path style="fill:#FFFFFF;" d="M177.771,285.091v-54.362h17.142c6.494,0,10.727,0.27,12.701,0.813
			c3.033,0.816,5.568,2.591,7.613,5.322c2.045,2.732,3.069,6.259,3.069,10.587c0,3.337-0.59,6.146-1.768,8.419
			c-1.18,2.271-2.68,4.058-4.496,5.355c-1.814,1.3-3.661,2.159-5.539,2.582c-2.547,0.517-6.241,0.776-11.075,0.776h-6.966v20.507
			H177.771z M188.453,239.923v15.426h5.846c4.21,0,7.025-0.283,8.445-0.853c1.417-0.569,2.53-1.456,3.337-2.667
			c0.806-1.212,1.208-2.621,1.208-4.228c0-1.979-0.565-3.609-1.696-4.897c-1.131-1.285-2.561-2.089-4.293-2.41
			c-1.276-0.248-3.84-0.371-7.688-0.371H188.453z"/>
		<path style="fill:#FFFFFF;" d="M238.975,285.091v-45.168h-15.698v-9.194h42.04v9.194h-15.662v45.168H238.975z"/>
	</g>
</svg>
