<svg className = "svgDownloadIconStyle" viewBox="0 0 350 350" x="0px" y="0px">
	<g>
		<path style="fill:#F7931E;" d="M185.561,100.577L207.566,81H285v38h-78L185.561,100.577z M204.14,96.822
			c-1.712,0-3.101,1.388-3.101,3.101s1.389,3.101,3.101,3.101s3.101-1.388,3.101-3.101S205.852,96.822,204.14,96.822z"/>
		<path d="M186.621,101.138c7.084-6.302,14.168-12.604,21.251-18.906C209.337,80.929,206.81,82,208.16,82c1.127,0,2.253,0,3.38,0
			c4.54,0,9.081,0,13.621,0c20.112,0,40.226,0,60.339,0c-0.5-0.5-1-1-1.5-1.5c0,12.667,0,25.333,0,38c0.5-0.5,1-1,1.5-1.5
			c-19.773,0-39.547,0-59.32,0c-4.753,0-9.505,0-14.257,0c-1.297,0-2.593,0-3.89,0c-1.753,0-0.072,0.354-0.271,0.183
			c-7.047-6.055-14.094-12.111-21.141-18.166c-1.459-1.254-3.591,0.858-2.121,2.121c7.102,6.103,14.203,12.205,21.305,18.307
			c1.144,0.983,3.288,0.555,4.679,0.555c4.659,0,9.318,0,13.978,0c20.347,0,40.692,0,61.039,0c0.817,0,1.5-0.682,1.5-1.5
			c0-12.667,0-25.333,0-38c0-0.818-0.683-1.5-1.5-1.5c-20.395,0-40.789,0-61.184,0c-4.412,0-8.824,0-13.235,0
			c-1.567,0-3.604-0.425-4.855,0.689c-7.242,6.442-14.483,12.885-21.726,19.328C183.052,100.305,185.181,102.419,186.621,101.138z"
			/>
		<path d="M204.14,95.322c-2.599,0.14-4.461,2.001-4.601,4.601c-0.14,2.593,2.212,4.472,4.601,4.601
			c2.593,0.14,4.472-2.212,4.601-4.601C208.88,97.329,206.528,95.451,204.14,95.322c-1.934-0.104-1.924,2.896,0,3
			c2.066,0.111,2.066,3.09,0,3.201c-2.067,0.111-2.056-3.09,0-3.201C206.063,98.218,206.073,95.218,204.14,95.322z"/>
		<path d="M38,87c0,57.831,0,115.662,0,173.492c0,5.985,0.984,11.883,2.75,17.618c4.517,14.676,14.68,26.4,29.371,31.411
			C78.433,312.356,87.278,312,95.926,312c53.852,0,107.703,0,161.555,0c17.165,0,33.851-4.985,44.763-19.186
			c7.324-9.532,8.757-21.645,8.757-33.277c0-9.557,0-19.113,0-28.669c0-31.548,0-63.096,0-94.644
			c0-16.685,0.438-33.436-0.012-50.116c-0.278-10.283-3.479-20.921-9.479-29.301C292.442,44.146,277.679,39,262.525,39
			c-21.264,0-42.526,0-63.79,0c-30.446,0-60.892,0-91.337,0c-13.995,0-27.722-1.016-41.011,4.364C47.916,50.844,38.215,67.326,38,87
			c-0.063,5.806,8.937,5.8,9,0c0.185-16.843,8.516-30.304,24.572-36.019C77.332,48.931,82.294,48,88.058,48
			c22.365,0,44.73,0,67.095,0c30.017,0,60.035,0,90.052,0c5.922,0,11.843,0,17.765,0c15.978,0,29.934,7.29,35.821,22.588
			C303.513,82.855,302,96.793,302,110.141c0,30.813,0,61.626,0,92.439c0,20.1,0,40.2,0,60.3c0,15.937-6.949,29.297-21.601,36.082
			c-5.868,2.718-12.047,4.038-17.874,4.038c-51.709,0-103.418,0-155.127,0c-6.71,0-13.419,0-20.129,0
			C71.823,303,59,296.184,52.01,282.269c-3.005-5.982-5.01-13.504-5.01-19.271c0-0.56,0-1.118,0-1.678c0-52.934,0-105.867,0-158.8
			c0-5.173,0-10.347,0-15.52C47,81.196,38,81.196,38,87z"/>
		<path d="M87,263"/>
		<path d="M236.5,201c0,29.333,0,58.667,0,88c0,5.804,9,5.804,9,0c0-29.333,0-58.667,0-88C245.5,195.196,236.5,195.196,236.5,201
			L236.5,201z"/>
		<path d="M192.818,248.182c15,14.667,30,29.334,45,44c4.15,4.059,10.519-2.301,6.363-6.363c-15-14.667-30-29.334-45-44
			C195.031,237.76,188.663,244.119,192.818,248.182L192.818,248.182z"/>
		<path d="M281.818,241.93c-14.667,14.629-29.334,29.259-44,43.889c-4.113,4.102,2.251,10.466,6.363,6.363
			c14.667-14.629,29.334-29.259,44-43.889C292.295,244.191,285.931,237.827,281.818,241.93L281.818,241.93z"/>
		<path d="M184.899,160.663c-38.8,0-77.6,0-116.399,0c0.5,0.5,1,1,1.5,1.5c0-28.221,0-56.442,0-84.663c-0.5,0.5-1,1-1.5,1.5
			c38.8,0,77.6,0,116.399,0c-0.5-0.5-1-1-1.5-1.5c0,28.221,0,56.442,0,84.663c0,1.935,3,1.935,3,0c0-28.221,0-56.442,0-84.663
			c0-0.818-0.683-1.5-1.5-1.5c-38.8,0-77.6,0-116.399,0c-0.818,0-1.5,0.682-1.5,1.5c0,28.221,0,56.442,0,84.663
			c0,0.818,0.682,1.5,1.5,1.5c38.8,0,77.6,0,116.399,0C186.834,163.663,186.834,160.663,184.899,160.663z"/>
		<path d="M125.404,162.406c-15.243,21.317-30.487,42.635-45.73,63.953c-1.127,1.577,1.476,3.072,2.591,1.514
			c15.243-21.317,30.487-42.635,45.73-63.953C129.123,162.343,126.519,160.847,125.404,162.406L125.404,162.406z"/>
		<path d="M125,163c0,21.333,0,42.667,0,64c0,1.935,3,1.935,3,0c0-21.333,0-42.667,0-64C128,161.065,125,161.065,125,163L125,163z"
			/>
		<path d="M125.205,163.757c11.826,21.372,23.651,42.744,35.477,64.116c0.937,1.693,3.528,0.18,2.591-1.514
			c-11.826-21.372-23.651-42.744-35.477-64.116C126.858,160.55,124.268,162.063,125.205,163.757L125.205,163.757z"/>
		<path style="fill:none;stroke:#000000;stroke-miterlimit:10;" d="M151.124,119.916c0,13.059-10.586,23.645-23.645,23.645
			c-13.059,0-23.645-10.586-23.645-23.645c0-13.059,10.586-23.645,23.645-23.645 M127.5,120V96V120z M151.124,119.916L127.5,120"/>
		<path style="fill:#FFFFFF;" d="M219.391,107.84V90.484h5.624c2.131,0,3.52,0.087,4.167,0.26c0.995,0.261,1.827,0.827,2.498,1.699
			s1.007,1.999,1.007,3.38c0,1.065-0.193,1.961-0.58,2.688s-0.879,1.296-1.475,1.71c-0.596,0.415-1.201,0.689-1.817,0.823
			c-0.836,0.166-2.048,0.249-3.634,0.249h-2.285v6.547H219.391z M222.896,93.42v4.925h1.918c1.381,0,2.305-0.09,2.771-0.272
			c0.465-0.182,0.83-0.466,1.095-0.853s0.396-0.836,0.396-1.35c0-0.631-0.186-1.152-0.557-1.563c-0.371-0.41-0.84-0.667-1.408-0.77
			c-0.419-0.079-1.26-0.118-2.522-0.118H222.896z"/>
		<path style="fill:#FFFFFF;" d="M235.563,107.84V90.484h5.624c2.131,0,3.52,0.087,4.167,0.26c0.995,0.261,1.827,0.827,2.498,1.699
			s1.007,1.999,1.007,3.38c0,1.065-0.193,1.961-0.58,2.688s-0.879,1.296-1.475,1.71c-0.596,0.415-1.201,0.689-1.817,0.823
			c-0.836,0.166-2.048,0.249-3.634,0.249h-2.285v6.547H235.563z M239.067,93.42v4.925h1.918c1.381,0,2.305-0.09,2.771-0.272
			c0.465-0.182,0.83-0.466,1.095-0.853s0.396-0.836,0.396-1.35c0-0.631-0.186-1.152-0.557-1.563c-0.371-0.41-0.84-0.667-1.408-0.77
			c-0.419-0.079-1.26-0.118-2.522-0.118H239.067z"/>
		<path style="fill:#FFFFFF;" d="M255.643,107.84V93.42h-5.15v-2.936h13.793v2.936h-5.139v14.42H255.643z"/>
	</g>
</svg>
