<svg className = "svgDownloadIconStyle" viewBox="0 0 350 350" x="0px" y="0px">
	<g>
		<path style="fill:#E6E6E6;" d="M63.061,255.216L109.618,214H274v80H108.419L63.061,255.216z M102.368,247.863
			c-3.622,0-6.56,2.921-6.56,6.525c0,3.605,2.938,6.529,6.56,6.529c3.622,0,6.56-2.924,6.56-6.529
			C108.928,250.784,105.99,247.863,102.368,247.863z"/>
		<path d="M64.121,255.776c8.501-7.526,17.003-15.052,25.504-22.578c5.372-4.756,10.744-9.511,16.115-14.267
			c1.401-1.24,2.801-2.479,4.202-3.72c1.434-1.27-0.817-0.212,0.062-0.212c21.736,0,43.471,0,65.207,0c33.096,0,66.193,0,99.289,0
			c-0.5-0.5-1-1-1.5-1.5c0,26.667,0,53.333,0,80c0.5-0.5,1-1,1.5-1.5c-49.603,0-99.206,0-148.808,0c-5.106,0-10.212,0-15.319,0
			c-1.707,0-2.021-0.524-0.959,0.383c-1.886-1.612-3.772-3.226-5.658-4.838c-13.211-11.297-26.423-22.593-39.635-33.89
			c-1.461-1.25-3.594,0.862-2.121,2.121c8.814,7.537,17.629,15.074,26.444,22.611c5.185,4.433,10.37,8.866,15.555,13.3
			C105.253,292.76,107,295,108.803,295c21.615,0,43.229,0,64.844,0c33.618,0,67.236,0,100.853,0c0.817,0,1.5-0.683,1.5-1.5
			c0-26.667,0-53.333,0-80c0-0.817-0.683-1.5-1.5-1.5c-49.581,0-99.162,0-148.743,0c-5.006,0-10.012,0-15.019,0
			c-3.236,0-5.855,3.691-8.114,5.691C89.083,229.68,75.542,241.667,62,253.655C60.548,254.94,62.678,257.054,64.121,255.776z"/>
		<path d="M102.368,246.363c-4.545,0.243-7.813,3.473-8.06,8.025c-0.246,4.543,3.884,7.806,8.06,8.029
			c4.537,0.243,7.833-3.843,8.06-8.029C110.674,249.846,106.542,246.587,102.368,246.363c-1.934-0.104-1.924,2.896,0,3
			c6.518,0.35,6.517,9.705,0,10.055c-6.52,0.35-6.486-9.707,0-10.055C104.292,249.26,104.302,246.26,102.368,246.363z"/>
		<path d="M38,87c0,57.831,0,115.662,0,173.492c0,5.985,0.984,11.883,2.75,17.618c4.517,14.676,14.68,26.4,29.371,31.411
			C78.433,312.356,87.278,312,95.926,312c53.852,0,107.703,0,161.555,0c17.165,0,33.851-4.985,44.763-19.186
			c7.324-9.532,8.757-21.645,8.757-33.277c0-9.557,0-19.113,0-28.669c0-31.548,0-63.096,0-94.644
			c0-16.685,0.438-33.436-0.012-50.116c-0.278-10.283-3.479-20.921-9.479-29.301C292.442,44.146,277.679,39,262.525,39
			c-21.264,0-42.526,0-63.79,0c-30.446,0-60.892,0-91.337,0c-13.995,0-27.722-1.016-41.011,4.364C47.916,50.844,38.215,67.326,38,87
			c-0.063,5.806,8.937,5.8,9,0c0.185-16.843,8.516-30.304,24.572-36.019C77.332,48.931,82.294,48,88.058,48
			c22.365,0,44.73,0,67.095,0c30.017,0,60.035,0,90.052,0c5.922,0,11.843,0,17.765,0c15.978,0,29.934,7.29,35.821,22.588
			C303.513,82.855,302,96.793,302,110.141c0,30.813,0,61.626,0,92.439c0,20.1,0,40.2,0,60.3c0,15.937-6.949,29.297-21.601,36.082
			c-5.868,2.718-12.047,4.038-17.874,4.038c-51.709,0-103.418,0-155.127,0c-6.71,0-13.419,0-20.129,0
			C71.823,303,59,296.184,52.01,282.269c-3.005-5.982-5.01-13.504-5.01-19.271c0-0.56,0-1.118,0-1.678c0-52.934,0-105.867,0-158.8
			c0-5.173,0-10.347,0-15.52C47,81.196,38,81.196,38,87z"/>
		<path d="M234.5,93c0,29.333,0,58.667,0,88c0,5.804,9,5.804,9,0c0-29.333,0-58.667,0-88C243.5,87.196,234.5,87.196,234.5,93
			L234.5,93z"/>
		<path d="M190.818,140.182c15,14.667,30,29.333,45,44c4.15,4.059,10.519-2.301,6.363-6.363c-15-14.667-30-29.333-45-44
			C193.031,129.76,186.663,136.119,190.818,140.182L190.818,140.182z"/>
		<path d="M279.818,133.929c-14.667,14.63-29.334,29.259-44,43.889c-4.113,4.102,2.251,10.466,6.363,6.363
			c14.667-14.629,29.334-29.259,44-43.888C290.295,136.191,283.931,129.828,279.818,133.929L279.818,133.929z"/>
		<path d="M172,196.5c-33.5,0-67,0-100.5,0c0.5,0.5,1,1,1.5,1.5c0-42.333,0-84.667,0-127c-0.5,0.5-1,1-1.5,1.5c33.5,0,67,0,100.5,0
			c-0.5-0.5-1-1-1.5-1.5c0,42.333,0,84.667,0,127c0,1.935,3,1.935,3,0c0-42.333,0-84.667,0-127c0-0.818-0.682-1.5-1.5-1.5
			c-33.5,0-67,0-100.5,0c-0.818,0-1.5,0.682-1.5,1.5c0,42.333,0,84.667,0,127c0,0.817,0.682,1.5,1.5,1.5c33.5,0,67,0,100.5,0
			C173.935,199.5,173.935,196.5,172,196.5z"/>
		<path d="M86.746,141.251c23.776,0,47.552,0,71.328,0c1.935,0,1.935-3,0-3c-23.776,0-47.552,0-71.328,0
			C84.811,138.251,84.811,141.251,86.746,141.251L86.746,141.251z"/>
		<path d="M86.746,169.346c23.776,0,47.552,0,71.328,0c1.935,0,1.935-3,0-3c-23.776,0-47.552,0-71.328,0
			C84.811,166.346,84.811,169.346,86.746,169.346L86.746,169.346z"/>
		<path d="M86.746,183.877c23.776,0,47.552,0,71.328,0c1.935,0,1.935-3,0-3c-23.776,0-47.552,0-71.328,0
			C84.811,180.877,84.811,183.877,86.746,183.877L86.746,183.877z"/>
		<path d="M86.746,155.783c23.776,0,47.552,0,71.328,0c1.935,0,1.935-3,0-3c-23.776,0-47.552,0-71.328,0
			C84.811,152.783,84.811,155.783,86.746,155.783L86.746,155.783z"/>
		<path d="M139.128,284.469v-51.515h-15.97v-10.49h42.768v10.49h-15.934v51.515H139.128z"/>
		<path d="M167.466,284.469l18.393-32.354l-16.666-29.65h12.7l10.792,19.925l10.571-19.925h12.595L199.11,252.58l18.393,31.889
			h-13.106l-11.932-21.441l-11.967,21.441H167.466z"/>
		<path d="M235.2,284.469v-51.515h-15.97v-10.49h42.768v10.49h-15.934v51.515H235.2z"/>
		<path d="M86.746,87.251c23.776,0,47.552,0,71.329,0c1.935,0,1.935-3,0-3c-23.776,0-47.552,0-71.329,0
			C84.811,84.251,84.811,87.251,86.746,87.251L86.746,87.251z"/>
		<path d="M86.746,113.346c23.776,0,47.552,0,71.329,0c1.935,0,1.935-3,0-3c-23.776,0-47.552,0-71.329,0
			C84.811,110.346,84.811,113.346,86.746,113.346L86.746,113.346z"/>
		<path d="M86.746,127.877c23.776,0,47.552,0,71.329,0c1.935,0,1.935-3,0-3c-23.776,0-47.552,0-71.329,0
			C84.811,124.877,84.811,127.877,86.746,127.877L86.746,127.877z"/>
		<path d="M86.746,99.783c23.776,0,47.552,0,71.329,0c1.935,0,1.935-3,0-3c-23.776,0-47.552,0-71.329,0
			C84.811,96.783,84.811,99.783,86.746,99.783L86.746,99.783z"/>
	</g>
</svg>