<svg className = "svgDownloadIconStyle" viewBox="0 0 350 350" x="0px" y="0px">
	<g>
		<path style="fill:#E6E6E6;" d="M185.561,100.577L207.566,81H285v38h-78L185.561,100.577z M204.14,96.822
			c-1.712,0-3.101,1.388-3.101,3.101s1.389,3.101,3.101,3.101s3.101-1.388,3.101-3.101S205.852,96.822,204.14,96.822z"/>
		<path d="M186.621,101.138c7.084-6.302,14.168-12.604,21.251-18.906C209.337,80.929,206.81,82,208.16,82c1.127,0,2.253,0,3.38,0
			c4.54,0,9.081,0,13.621,0c20.112,0,40.226,0,60.339,0c-0.5-0.5-1-1-1.5-1.5c0,12.667,0,25.333,0,38c0.5-0.5,1-1,1.5-1.5
			c-19.773,0-39.547,0-59.32,0c-4.753,0-9.505,0-14.257,0c-1.297,0-2.593,0-3.89,0c-1.753,0-0.072,0.354-0.271,0.183
			c-7.047-6.055-14.094-12.111-21.141-18.166c-1.459-1.254-3.591,0.858-2.121,2.121c7.102,6.103,14.203,12.205,21.305,18.307
			c1.144,0.983,3.288,0.555,4.679,0.555c4.659,0,9.318,0,13.978,0c20.347,0,40.692,0,61.039,0c0.817,0,1.5-0.682,1.5-1.5
			c0-12.667,0-25.333,0-38c0-0.818-0.683-1.5-1.5-1.5c-20.395,0-40.789,0-61.184,0c-4.412,0-8.824,0-13.235,0
			c-1.567,0-3.604-0.425-4.855,0.689c-7.242,6.442-14.483,12.885-21.726,19.328C183.052,100.305,185.181,102.419,186.621,101.138z"
			/>
		<path d="M204.14,95.322c-2.599,0.14-4.461,2.001-4.601,4.601c-0.14,2.593,2.212,4.472,4.601,4.601
			c2.593,0.14,4.472-2.212,4.601-4.601C208.88,97.329,206.528,95.451,204.14,95.322c-1.934-0.104-1.924,2.896,0,3
			c2.066,0.111,2.066,3.09,0,3.201c-2.067,0.111-2.056-3.09,0-3.201C206.063,98.218,206.073,95.218,204.14,95.322z"/>
		<path d="M38,87c0,57.831,0,115.662,0,173.492c0,5.985,0.984,11.883,2.75,17.618c4.517,14.676,14.68,26.4,29.371,31.411
			C78.433,312.356,87.278,312,95.926,312c53.852,0,107.703,0,161.555,0c17.165,0,33.851-4.985,44.763-19.186
			c7.324-9.532,8.757-21.645,8.757-33.277c0-9.557,0-19.113,0-28.669c0-31.548,0-63.096,0-94.644
			c0-16.685,0.438-33.436-0.012-50.116c-0.278-10.283-3.479-20.921-9.479-29.301C292.442,44.146,277.679,39,262.525,39
			c-21.264,0-42.526,0-63.79,0c-30.446,0-60.892,0-91.337,0c-13.995,0-27.722-1.016-41.011,4.364C47.916,50.844,38.215,67.326,38,87
			c-0.063,5.806,8.937,5.8,9,0c0.185-16.843,8.516-30.304,24.572-36.019C77.332,48.931,82.294,48,88.058,48
			c22.365,0,44.73,0,67.095,0c30.017,0,60.035,0,90.052,0c5.922,0,11.843,0,17.765,0c15.978,0,29.934,7.29,35.821,22.588
			C303.513,82.855,302,96.793,302,110.141c0,30.813,0,61.626,0,92.439c0,20.1,0,40.2,0,60.3c0,15.937-6.949,29.297-21.601,36.082
			c-5.868,2.718-12.047,4.038-17.874,4.038c-51.709,0-103.418,0-155.127,0c-6.71,0-13.419,0-20.129,0
			C71.823,303,59,296.184,52.01,282.269c-3.005-5.982-5.01-13.504-5.01-19.271c0-0.56,0-1.118,0-1.678c0-52.934,0-105.867,0-158.8
			c0-5.173,0-10.347,0-15.52C47,81.196,38,81.196,38,87z"/>
		<path d="M87,263"/>
		<path d="M236.5,201c0,29.333,0,58.667,0,88c0,5.804,9,5.804,9,0c0-29.333,0-58.667,0-88C245.5,195.196,236.5,195.196,236.5,201
			L236.5,201z"/>
		<path d="M192.818,248.182c15,14.667,30,29.334,45,44c4.15,4.059,10.519-2.301,6.363-6.363c-15-14.667-30-29.334-45-44
			C195.031,237.76,188.663,244.119,192.818,248.182L192.818,248.182z"/>
		<path d="M281.818,241.93c-14.667,14.629-29.334,29.259-44,43.889c-4.113,4.102,2.251,10.466,6.363,6.363
			c14.667-14.629,29.334-29.259,44-43.889C292.295,244.191,285.931,237.827,281.818,241.93L281.818,241.93z"/>
		<path d="M184.899,225.191c-38.8,0-77.6,0-116.399,0c0.5,0.5,1,1,1.5,1.5c0-48.141,0-96.28,0-144.42c0-1.59,0-3.181,0-4.771
			c-0.5,0.5-1,1-1.5,1.5c38.8,0,77.6,0,116.399,0c-0.5-0.5-1-1-1.5-1.5c0,48.14,0,96.28,0,144.421c0,1.59,0,3.181,0,4.771
			c0,1.935,3,1.935,3,0c0-48.141,0-96.28,0-144.42c0-1.59,0-3.181,0-4.771c0-0.818-0.683-1.5-1.5-1.5c-38.8,0-77.6,0-116.399,0
			c-0.818,0-1.5,0.682-1.5,1.5c0,48.14,0,96.28,0,144.421c0,1.59,0,3.181,0,4.771c0,0.817,0.682,1.5,1.5,1.5
			c38.8,0,77.6,0,116.399,0C186.834,228.191,186.834,225.191,184.899,225.191z"/>
		<path d="M91.746,157.251c23.776,0,47.552,0,71.328,0c1.935,0,1.935-3,0-3c-23.776,0-47.552,0-71.328,0
			C89.811,154.251,89.811,157.251,91.746,157.251L91.746,157.251z"/>
		<path d="M91.746,185.346c23.776,0,47.552,0,71.328,0c1.935,0,1.935-3,0-3c-23.776,0-47.552,0-71.328,0
			C89.811,182.346,89.811,185.346,91.746,185.346L91.746,185.346z"/>
		<path d="M91.746,199.877c23.776,0,47.552,0,71.328,0c1.935,0,1.935-3,0-3c-23.776,0-47.552,0-71.328,0
			C89.811,196.877,89.811,199.877,91.746,199.877L91.746,199.877z"/>
		<path d="M91.746,171.783c23.776,0,47.552,0,71.328,0c1.935,0,1.935-3,0-3c-23.776,0-47.552,0-71.328,0
			C89.811,168.783,89.811,171.783,91.746,171.783L91.746,171.783z"/>
		<path d="M224.231,107.971V94.672h-4.75v-2.708h12.721v2.708h-4.739v13.299H224.231z"/>
		<path d="M232.66,107.971l5.471-8.353l-4.957-7.654h3.777l3.21,5.143l3.145-5.143h3.746l-4.979,7.774l5.471,8.233h-3.898
			l-3.549-5.536l-3.56,5.536H232.66z"/>
		<path d="M252.807,107.971V94.672h-4.75v-2.708h12.721v2.708h-4.739v13.299H252.807z"/>
		<path d="M91.746,103.251c23.776,0,47.552,0,71.329,0c1.935,0,1.935-3,0-3c-23.776,0-47.552,0-71.329,0
			C89.811,100.251,89.811,103.251,91.746,103.251L91.746,103.251z"/>
		<path d="M91.746,129.346c23.776,0,47.552,0,71.329,0c1.935,0,1.935-3,0-3c-23.776,0-47.552,0-71.329,0
			C89.811,126.346,89.811,129.346,91.746,129.346L91.746,129.346z"/>
		<path d="M91.746,143.877c23.776,0,47.552,0,71.329,0c1.935,0,1.935-3,0-3c-23.776,0-47.552,0-71.329,0
			C89.811,140.877,89.811,143.877,91.746,143.877L91.746,143.877z"/>
		<path d="M91.746,115.783c23.776,0,47.552,0,71.329,0c1.935,0,1.935-3,0-3c-23.776,0-47.552,0-71.329,0
			C89.811,112.783,89.811,115.783,91.746,115.783L91.746,115.783z"/>
	</g>
</svg>
