<svg className = "svgDownloadIconStyle" viewBox="0 0 350 350" x="0px" y="0px">
	<g>
		<path d="M75.5,274.691c49.406,0,98.812,0,148.217,0c16.762,0,33.522,0,50.283,0c15.477,0,15.477-24,0-24
			c-49.405,0-98.812,0-148.217,0c-16.761,0-33.522,0-50.283,0C60.023,250.691,60.023,274.691,75.5,274.691L75.5,274.691z"/>
		<path d="M163.613,78c0,49.298,0,98.597,0,147.896c0,3.778,0,7.558,0,11.336c0,15.477,24,15.477,24,0
			c0-49.299,0-98.597,0-147.896c0-3.778,0-7.557,0-11.336C187.613,62.523,163.613,62.523,163.613,78L163.613,78z"/>
		<path d="M184.099,228.746c-24.309-22.563-48.618-45.128-72.927-67.691c-11.325-10.511-28.336,6.421-16.971,16.971
			c24.309,22.563,48.618,45.128,72.927,67.691C178.452,256.229,195.464,239.296,184.099,228.746L184.099,228.746z"/>
		<path d="M184.099,245.717c25.176-23.015,50.353-46.029,75.528-69.044c4.829-4.414,4.468-12.502,0-16.97
			c-4.778-4.778-12.146-4.41-16.971,0c-25.176,23.014-50.353,46.029-75.528,69.043c-4.829,4.414-4.468,12.503,0,16.971
			C171.906,250.495,179.274,250.126,184.099,245.717L184.099,245.717z"/>
		<path d="M38,86c0,57.831,0,115.662,0,173.492c0,5.985,0.984,11.883,2.75,17.618c4.517,14.676,14.68,26.4,29.371,31.411
			C78.433,311.356,87.278,311,95.926,311c53.852,0,107.703,0,161.555,0c17.165,0,33.851-4.985,44.763-19.186
			c7.324-9.532,8.757-21.645,8.757-33.277c0-9.557,0-19.113,0-28.669c0-31.548,0-63.096,0-94.644
			c0-16.685,0.438-33.436-0.012-50.116c-0.278-10.283-3.479-20.921-9.479-29.301C292.442,43.146,277.679,38,262.525,38
			c-21.264,0-42.526,0-63.79,0c-30.446,0-60.892,0-91.337,0c-13.995,0-27.722-1.016-41.011,4.364C47.916,49.844,38.215,66.326,38,86
			c-0.063,5.806,8.937,5.8,9,0c0.185-16.843,8.516-30.304,24.572-36.019C77.332,47.931,82.294,47,88.058,47
			c22.365,0,44.73,0,67.095,0c30.017,0,60.035,0,90.052,0c5.922,0,11.843,0,17.765,0c15.978,0,29.934,7.29,35.821,22.588
			C303.513,81.855,302,95.793,302,109.141c0,30.813,0,61.626,0,92.439c0,20.1,0,40.2,0,60.3c0,15.937-6.949,29.297-21.601,36.082
			c-5.868,2.718-12.047,4.038-17.874,4.038c-51.709,0-103.418,0-155.127,0c-6.71,0-13.419,0-20.129,0
			C71.823,302,59,295.184,52.01,281.269c-3.005-5.982-5.01-13.504-5.01-19.271c0-0.56,0-1.118,0-1.678c0-52.934,0-105.867,0-158.8
			c0-5.173,0-10.347,0-15.52C47,80.196,38,80.196,38,86z"/>
	</g>
</svg>
