<svg className = "svgDownloadIconStyle" viewBox="0 0 350 350" x="0px" y="0px">
	<g>
		<path style="fill:#39B54A;" d="M68,254.047L113.017,219H272v68H111.858L68,254.047z M106.007,248.119
			c-3.502,0-6.343,2.519-6.343,5.625c0,3.108,2.841,5.628,6.343,5.628c3.502,0,6.342-2.52,6.342-5.628
			C112.349,250.638,109.509,248.119,106.007,248.119z"/>
		<path d="M69.061,255.086c9.172-7.238,18.344-14.477,27.516-21.714c5.056-3.99,10.112-7.98,15.168-11.971
			c0.573-0.452,1.147-0.904,1.72-1.357c0.941-0.742,0.504-0.044-0.439-0.044c0.519,0,1.037,0,1.556,0c24.059,0,48.117,0,72.175,0
			c28.563,0,57.124,0,85.687,0c-0.5-0.5-1-1-1.5-1.5c0,22.985,0,45.972,0,68.957c0.5-0.5,1-1,1.5-1.5c-49.407,0-98.815,0-148.223,0
			c-3.796,0-7.592,0-11.389,0c-1.651,0,0.047,0.405-0.674-0.145c-2.181-1.663-4.362-3.325-6.544-4.988
			c-12.285-9.364-24.57-18.729-36.856-28.094c-1.539-1.174-3.031,1.434-1.514,2.59c9.524,7.26,19.048,14.52,28.572,21.78
			c4.714,3.593,9.428,7.187,14.142,10.779c1.339,1.021,2.058,1.077,3.69,1.077c24.336,0,48.673,0,73.01,0c28.595,0,57.19,0,85.785,0
			c0.817,0,1.5-0.683,1.5-1.5c0-22.985,0-45.972,0-68.957c0-0.817-0.683-1.5-1.5-1.5c-49.205,0-98.411,0-147.617,0
			c-3.763,0-7.526,0-11.29,0c-2.922,0-6.673,4.458-8.76,6.105c-12.612,9.953-25.224,19.906-37.836,29.859
			C65.421,254.163,67.56,256.271,69.061,255.086z"/>
		<path d="M106.007,246.619c-4.158,0.213-7.563,2.813-7.843,7.125c-0.28,4.299,4.114,6.938,7.843,7.128
			c4.149,0.212,7.582-3.128,7.842-7.128C114.128,249.446,109.735,246.81,106.007,246.619c-1.935-0.099-1.925,2.901,0,3
			c2.437,0.125,4.672,1.504,4.842,4.125c0.17,2.613-2.664,4.017-4.842,4.128c-2.433,0.125-4.685-1.691-4.843-4.128
			c-0.17-2.612,2.666-4.014,4.843-4.125C107.932,249.521,107.941,246.521,106.007,246.619z"/>
		<path d="M38,87c0,57.831,0,115.662,0,173.492c0,5.985,0.984,11.883,2.75,17.618c4.517,14.676,14.68,26.4,29.371,31.411
			C78.433,312.356,87.278,312,95.926,312c53.852,0,107.703,0,161.555,0c17.165,0,33.851-4.985,44.763-19.186
			c7.324-9.532,8.757-21.645,8.757-33.277c0-9.557,0-19.113,0-28.669c0-31.548,0-63.096,0-94.644
			c0-16.685,0.438-33.436-0.012-50.116c-0.278-10.283-3.479-20.921-9.479-29.301C292.442,44.146,277.679,39,262.525,39
			c-21.264,0-42.526,0-63.79,0c-30.446,0-60.892,0-91.337,0c-13.995,0-27.722-1.016-41.011,4.364C47.916,50.844,38.215,67.326,38,87
			c-0.063,5.806,8.937,5.8,9,0c0.185-16.843,8.516-30.304,24.572-36.019C77.332,48.931,82.294,48,88.058,48
			c22.365,0,44.73,0,67.095,0c30.017,0,60.035,0,90.052,0c5.922,0,11.843,0,17.765,0c15.978,0,29.934,7.29,35.821,22.588
			C303.513,82.855,302,96.793,302,110.141c0,30.813,0,61.626,0,92.439c0,20.1,0,40.2,0,60.3c0,15.937-6.949,29.297-21.601,36.082
			c-5.868,2.718-12.047,4.038-17.874,4.038c-51.709,0-103.418,0-155.127,0c-6.71,0-13.419,0-20.129,0
			C71.823,303,59,296.184,52.01,282.269c-3.005-5.982-5.01-13.504-5.01-19.271c0-0.56,0-1.118,0-1.678c0-52.934,0-105.867,0-158.8
			c0-5.173,0-10.347,0-15.52C47,81.196,38,81.196,38,87z"/>
		<path d="M249.548,96c0,23.968,0,47.936,0,71.903c0,5.804,9,5.804,9,0c0-23.968,0-47.936,0-71.903
			C258.548,90.196,249.548,90.196,249.548,96L249.548,96z"/>
		<path d="M214.098,135.134c12.256,11.984,24.512,23.968,36.769,35.952c4.15,4.058,10.519-2.301,6.363-6.364
			c-12.256-11.984-24.512-23.968-36.769-35.952C216.311,124.711,209.942,131.071,214.098,135.134L214.098,135.134z"/>
		<path d="M286.818,128.861c-11.984,11.954-23.969,23.907-35.952,35.86c-4.113,4.103,2.251,10.466,6.363,6.364
			c11.984-11.954,23.969-23.907,35.952-35.86C297.295,131.123,290.931,124.759,286.818,128.861L286.818,128.861z"/>
		<rect x="72.5" y="88.5" style="fill:none;stroke-miterlimit:10;" width="107" height="28"/>
		<line style="fill:none;stroke-miterlimit:10;" x1="89.5" y1="89" x2="89.5" y2="117"/>
		<line style="fill:none;stroke-miterlimit:10;" x1="108.5" y1="89" x2="108.5" y2="117"/>
		<line style="fill:none;stroke-miterlimit:10;" x1="125.5" y1="88" x2="125.5" y2="117"/>
		<line style="fill:none;stroke-miterlimit:10;" x1="144.5" y1="88" x2="144.5" y2="117"/>
		<line style="fill:none;stroke-miterlimit:10;" x1="162.5" y1="89" x2="162.5" y2="117"/>
		<line style="fill:none;stroke-miterlimit:10;" x1="72" y1="98.5" x2="179" y2="98.5"/>
		<line style="fill:none;stroke-miterlimit:10;" x1="73" y1="107.5" x2="180" y2="107.5"/>
		<line style="fill:none;stroke-miterlimit:10;" x1="72" y1="125.5" x2="86" y2="125.5"/>
		<line style="fill:none;stroke-miterlimit:10;" x1="73" y1="134.5" x2="86" y2="134.5"/>
		<line style="fill:none;stroke-miterlimit:10;" x1="73" y1="143.5" x2="86" y2="143.5"/>
		<path d="M202.899,205.151c-38.8,0-77.6,0-116.399,0c0.5,0.5,1,1,1.5,1.5c0-29.384,0-58.768,0-88.151c-0.5,0.5-1,1-1.5,1.5
			c38.8,0,77.6,0,116.399,0c-0.5-0.5-1-1-1.5-1.5c0,29.384,0,58.768,0,88.151c0,1.935,3,1.935,3,0c0-29.384,0-58.768,0-88.151
			c0-0.818-0.683-1.5-1.5-1.5c-38.8,0-77.6,0-116.399,0c-0.818,0-1.5,0.682-1.5,1.5c0,29.384,0,58.768,0,88.151
			c0,0.817,0.682,1.5,1.5,1.5c38.8,0,77.6,0,116.399,0C204.834,208.151,204.834,205.151,202.899,205.151z"/>
		<rect x="90.5" y="129.5" style="fill:none;stroke-miterlimit:10;" width="107" height="65"/>
		<line style="fill:none;stroke-miterlimit:10;" x1="107.5" y1="130" x2="107.5" y2="194"/>
		<line style="fill:none;stroke-miterlimit:10;" x1="126.5" y1="130" x2="126.5" y2="195"/>
		<line style="fill:none;stroke-miterlimit:10;" x1="143.5" y1="129" x2="143.5" y2="194"/>
		<line style="fill:none;stroke-miterlimit:10;" x1="162.5" y1="129" x2="162.5" y2="195"/>
		<line style="fill:none;stroke-miterlimit:10;" x1="90" y1="139.5" x2="197" y2="139.5"/>
		<line style="fill:none;stroke-miterlimit:10;" x1="91" y1="148.5" x2="198" y2="148.5"/>
		<line style="fill:none;stroke-miterlimit:10;" x1="91" y1="157.5" x2="198" y2="157.5"/>
		<line style="fill:none;stroke-miterlimit:10;" x1="90" y1="166.5" x2="197" y2="166.5"/>
		<line style="fill:none;stroke-miterlimit:10;" x1="91" y1="175.5" x2="198" y2="175.5"/>
		<line style="fill:none;stroke-miterlimit:10;" x1="91" y1="184.5" x2="198" y2="184.5"/>
		<line style="fill:none;stroke-miterlimit:10;" x1="72.5" y1="117" x2="72.5" y2="153"/>
		<path d="M85.5,164c-5.833,0-11.667,0-17.5,0c0.5,0.5,1,1,1.5,1.5c0-29.333,0-58.667,0-88c-0.5,0.5-1,1-1.5,1.5c39,0,78,0,117,0
			c-0.5-0.5-1-1-1.5-1.5c-0.033,13.667-0.067,27.333-0.101,41c0.5-0.5,1-1,1.5-1.5c-33.133,0-66.266,0-99.399,0
			c-0.818,0-1.5,0.682-1.5,1.5c0,15.667,0,31.333,0,47c0,1.935,3,1.935,3,0c0-15.667,0-31.333,0-47c-0.5,0.5-1,1-1.5,1.5
			c33.133,0,66.266,0,99.399,0c0.819,0,1.498-0.682,1.5-1.5c0.033-13.667,0.067-27.333,0.101-41c0.002-0.818-0.684-1.5-1.5-1.5
			c-39,0-78,0-117,0c-0.818,0-1.5,0.682-1.5,1.5c0,29.333,0,58.667,0,88c0,0.818,0.682,1.5,1.5,1.5c5.833,0,11.667,0,17.5,0
			C87.435,167,87.435,164,85.5,164z"/>
		<line style="fill:none;stroke-miterlimit:10;" x1="179.5" y1="130" x2="179.5" y2="195"/>
		<line style="fill:none;stroke-miterlimit:10;" x1="72" y1="152.5" x2="85" y2="152.5"/>
		<path style="fill:#FFFFFF;" d="M116.765,280.581l18.725-28.955l-16.969-26.533h12.932l10.987,17.827l10.764-17.827h12.82
			l-17.042,26.95l18.725,28.538h-13.343l-12.146-19.19l-12.186,19.19H116.765z"/>
		<path style="fill:#FFFFFF;" d="M173.688,280.581v-55.032h11.063v45.683h27.507v9.35H173.688z"/>
		<path style="fill:#FFFFFF;" d="M217.339,262.527l10.762-1.061c0.648,3.659,1.963,6.349,3.944,8.062
			c1.979,1.718,4.652,2.575,8.017,2.575c3.562,0,6.246-0.762,8.055-2.291c1.806-1.526,2.709-3.312,2.709-5.355
			c0-1.31-0.381-2.426-1.142-3.351c-0.758-0.919-2.085-1.72-3.979-2.401c-1.298-0.453-4.25-1.261-8.858-2.423
			c-5.931-1.489-10.092-3.318-12.481-5.488c-3.364-3.055-5.047-6.772-5.047-11.166c0-2.827,0.791-5.469,2.374-7.929
			c1.58-2.461,3.859-4.332,6.841-5.621c2.973-1.288,6.569-1.93,10.779-1.93c6.877,0,12.055,1.526,15.53,4.582
			c3.474,3.052,5.301,7.127,5.475,12.223l-11.063,0.491c-0.472-2.85-1.488-4.902-3.044-6.147c-1.559-1.252-3.894-1.875-7.008-1.875
			c-3.215,0-5.731,0.666-7.55,2.004c-1.171,0.857-1.756,2.007-1.756,3.446c0,1.314,0.548,2.436,1.645,3.367
			c1.393,1.187,4.781,2.424,10.164,3.712c5.382,1.285,9.364,2.614,11.942,3.989c2.578,1.378,4.596,3.255,6.055,5.641
			c1.455,2.387,2.186,5.331,2.186,8.837c0,3.181-0.874,6.159-2.618,8.934s-4.21,4.841-7.397,6.19
			c-3.19,1.347-7.166,2.022-11.924,2.022c-6.925,0-12.247-1.622-15.958-4.865C220.276,273.46,218.061,268.733,217.339,262.527z"/>
	</g>
</svg>
