<svg className = "svgDownloadIconStyle" viewBox="0 0 350 350" x="0px" y="0px">
	<g>
		<path style="fill:#39B54A;" d="M185.561,100.577L207.566,81H285v38h-78L185.561,100.577z M204.14,96.822
			c-1.712,0-3.101,1.388-3.101,3.101s1.389,3.101,3.101,3.101s3.101-1.388,3.101-3.101S205.852,96.822,204.14,96.822z"/>
		<path d="M186.621,101.138c7.084-6.302,14.168-12.604,21.251-18.906C209.337,80.929,206.81,82,208.16,82c1.127,0,2.253,0,3.38,0
			c4.54,0,9.081,0,13.621,0c20.112,0,40.226,0,60.339,0c-0.5-0.5-1-1-1.5-1.5c0,12.667,0,25.333,0,38c0.5-0.5,1-1,1.5-1.5
			c-19.773,0-39.547,0-59.32,0c-4.753,0-9.505,0-14.257,0c-1.297,0-2.593,0-3.89,0c-1.753,0-0.072,0.354-0.271,0.183
			c-7.047-6.055-14.094-12.111-21.141-18.166c-1.459-1.254-3.591,0.858-2.121,2.121c7.102,6.103,14.203,12.205,21.305,18.307
			c1.144,0.983,3.288,0.555,4.679,0.555c4.659,0,9.318,0,13.978,0c20.347,0,40.692,0,61.039,0c0.817,0,1.5-0.682,1.5-1.5
			c0-12.667,0-25.333,0-38c0-0.818-0.683-1.5-1.5-1.5c-20.395,0-40.789,0-61.184,0c-4.412,0-8.824,0-13.235,0
			c-1.567,0-3.604-0.425-4.855,0.689c-7.242,6.442-14.483,12.885-21.726,19.328C183.052,100.305,185.181,102.419,186.621,101.138z"
			/>
		<path d="M204.14,95.322c-2.599,0.14-4.461,2.001-4.601,4.601c-0.14,2.593,2.212,4.472,4.601,4.601
			c2.593,0.14,4.472-2.212,4.601-4.601C208.88,97.329,206.528,95.451,204.14,95.322c-1.934-0.104-1.924,2.896,0,3
			c2.066,0.111,2.066,3.09,0,3.201c-2.067,0.111-2.056-3.09,0-3.201C206.063,98.218,206.073,95.218,204.14,95.322z"/>
		<path d="M38,87c0,57.831,0,115.662,0,173.492c0,5.985,0.984,11.883,2.75,17.618c4.517,14.676,14.68,26.4,29.371,31.411
			C78.433,312.356,87.278,312,95.926,312c53.852,0,107.703,0,161.555,0c17.165,0,33.851-4.985,44.763-19.186
			c7.324-9.532,8.757-21.645,8.757-33.277c0-9.557,0-19.113,0-28.669c0-31.548,0-63.096,0-94.644
			c0-16.685,0.438-33.436-0.012-50.116c-0.278-10.283-3.479-20.921-9.479-29.301C292.442,44.146,277.679,39,262.525,39
			c-21.264,0-42.526,0-63.79,0c-30.446,0-60.892,0-91.337,0c-13.995,0-27.722-1.016-41.011,4.364C47.916,50.844,38.215,67.326,38,87
			c-0.063,5.806,8.937,5.8,9,0c0.185-16.843,8.516-30.304,24.572-36.019C77.332,48.931,82.294,48,88.058,48
			c22.365,0,44.73,0,67.095,0c30.017,0,60.035,0,90.052,0c5.922,0,11.843,0,17.765,0c15.978,0,29.934,7.29,35.821,22.588
			C303.513,82.855,302,96.793,302,110.141c0,30.813,0,61.626,0,92.439c0,20.1,0,40.2,0,60.3c0,15.937-6.949,29.297-21.601,36.082
			c-5.868,2.718-12.047,4.038-17.874,4.038c-51.709,0-103.418,0-155.127,0c-6.71,0-13.419,0-20.129,0
			C71.823,303,59,296.184,52.01,282.269c-3.005-5.982-5.01-13.504-5.01-19.271c0-0.56,0-1.118,0-1.678c0-52.934,0-105.867,0-158.8
			c0-5.173,0-10.347,0-15.52C47,81.196,38,81.196,38,87z"/>
		<path d="M87,263"/>
		<path d="M236.5,201c0,29.333,0,58.667,0,88c0,5.804,9,5.804,9,0c0-29.333,0-58.667,0-88C245.5,195.196,236.5,195.196,236.5,201
			L236.5,201z"/>
		<path d="M192.818,248.182c15,14.667,30,29.334,45,44c4.15,4.059,10.519-2.301,6.363-6.363c-15-14.667-30-29.334-45-44
			C195.031,237.76,188.663,244.119,192.818,248.182L192.818,248.182z"/>
		<path d="M281.818,241.93c-14.667,14.629-29.334,29.259-44,43.889c-4.113,4.102,2.251,10.466,6.363,6.363
			c14.667-14.629,29.334-29.259,44-43.889C292.295,244.191,285.931,237.827,281.818,241.93L281.818,241.93z"/>
		<rect x="72.5" y="88.5" style="fill:none;stroke:#000000;" width="107" height="28"/>
		<line style="fill:none;stroke:#000000;" x1="89.5" y1="89" x2="89.5" y2="117"/>
		<line style="fill:none;stroke:#000000;" x1="108.5" y1="89" x2="108.5" y2="117"/>
		<line style="fill:none;stroke:#000000;" x1="125.5" y1="88" x2="125.5" y2="117"/>
		<line style="fill:none;stroke:#000000;" x1="144.5" y1="88" x2="144.5" y2="117"/>
		<line style="fill:none;stroke:#000000;" x1="162.5" y1="89" x2="162.5" y2="117"/>
		<line style="fill:none;stroke:#000000;" x1="72" y1="98.5" x2="179" y2="98.5"/>
		<line style="fill:none;stroke:#000000;" x1="73" y1="107.5" x2="180" y2="107.5"/>
		<line style="fill:none;stroke:#000000;" x1="72" y1="125.5" x2="86" y2="125.5"/>
		<line style="fill:none;stroke:#000000;" x1="73" y1="134.5" x2="86" y2="134.5"/>
		<line style="fill:none;stroke:#000000;" x1="73" y1="143.5" x2="86" y2="143.5"/>
		<path d="M202.899,205.151c-38.8,0-77.6,0-116.399,0c0.5,0.5,1,1,1.5,1.5c0-29.384,0-58.768,0-88.151c-0.5,0.5-1,1-1.5,1.5
			c38.8,0,77.6,0,116.399,0c-0.5-0.5-1-1-1.5-1.5c0,29.384,0,58.768,0,88.151c0,1.935,3,1.935,3,0c0-29.384,0-58.768,0-88.151
			c0-0.818-0.683-1.5-1.5-1.5c-38.8,0-77.6,0-116.399,0c-0.818,0-1.5,0.682-1.5,1.5c0,29.384,0,58.768,0,88.151
			c0,0.817,0.682,1.5,1.5,1.5c38.8,0,77.6,0,116.399,0C204.834,208.151,204.834,205.151,202.899,205.151z"/>
		<rect x="90.5" y="129.5" style="fill:none;stroke:#000000;" width="107" height="65"/>
		<line style="fill:none;stroke:#000000;" x1="107.5" y1="130" x2="107.5" y2="194"/>
		<line style="fill:none;stroke:#000000;" x1="126.5" y1="130" x2="126.5" y2="195"/>
		<line style="fill:none;stroke:#000000;" x1="143.5" y1="129" x2="143.5" y2="194"/>
		<line style="fill:none;stroke:#000000;" x1="162.5" y1="129" x2="162.5" y2="195"/>
		<line style="fill:none;stroke:#000000;" x1="90" y1="139.5" x2="197" y2="139.5"/>
		<line style="fill:none;stroke:#000000;" x1="91" y1="148.5" x2="198" y2="148.5"/>
		<line style="fill:none;stroke:#000000;" x1="91" y1="157.5" x2="198" y2="157.5"/>
		<line style="fill:none;stroke:#000000;" x1="90" y1="166.5" x2="197" y2="166.5"/>
		<line style="fill:none;stroke:#000000;" x1="91" y1="175.5" x2="198" y2="175.5"/>
		<line style="fill:none;stroke:#000000;" x1="91" y1="184.5" x2="198" y2="184.5"/>
		<line style="fill:none;stroke:#000000;" x1="72.5" y1="117" x2="72.5" y2="153"/>
		<path d="M85.5,164c-5.833,0-11.667,0-17.5,0c0.5,0.5,1,1,1.5,1.5c0-29.333,0-58.667,0-88c-0.5,0.5-1,1-1.5,1.5c39,0,78,0,117,0
			c-0.5-0.5-1-1-1.5-1.5c-0.033,13.667-0.067,27.333-0.101,41c0.5-0.5,1-1,1.5-1.5c-33.133,0-66.266,0-99.399,0
			c-0.818,0-1.5,0.682-1.5,1.5c0,15.667,0,31.333,0,47c0,1.935,3,1.935,3,0c0-15.667,0-31.333,0-47c-0.5,0.5-1,1-1.5,1.5
			c33.133,0,66.266,0,99.399,0c0.819,0,1.498-0.682,1.5-1.5c0.033-13.667,0.067-27.333,0.101-41c0.002-0.818-0.684-1.5-1.5-1.5
			c-39,0-78,0-117,0c-0.818,0-1.5,0.682-1.5,1.5c0,29.333,0,58.667,0,88c0,0.818,0.682,1.5,1.5,1.5c5.833,0,11.667,0,17.5,0
			C87.435,167,87.435,164,85.5,164z"/>
		<line style="fill:none;stroke:#000000;" x1="179.5" y1="130" x2="179.5" y2="195"/>
		<line style="fill:none;stroke:#000000;" x1="72" y1="152.5" x2="85" y2="152.5"/>
		<path style="fill:#FFFFFF;" d="M219,108.733l6.007-9.172l-5.443-8.405h4.148l3.524,5.647l3.453-5.647h4.112l-5.467,8.537
			l6.007,9.04h-4.28l-3.896-6.079l-3.909,6.079H219z"/>
		<path style="fill:#FFFFFF;" d="M237.261,108.733V91.301h3.549v14.471h8.824v2.961H237.261z"/>
		<path style="fill:#FFFFFF;" d="M251.264,103.015l3.452-0.336c0.208,1.159,0.63,2.01,1.266,2.554
			c0.635,0.544,1.492,0.815,2.571,0.815c1.143,0,2.004-0.242,2.584-0.726c0.579-0.483,0.869-1.049,0.869-1.696
			c0-0.416-0.122-0.769-0.366-1.061c-0.243-0.292-0.669-0.545-1.276-0.761c-0.416-0.144-1.363-0.4-2.842-0.768
			c-1.902-0.472-3.237-1.051-4.004-1.738c-1.079-0.967-1.619-2.146-1.619-3.537c0-0.895,0.254-1.732,0.762-2.512
			c0.507-0.779,1.238-1.373,2.194-1.78c0.954-0.408,2.107-0.611,3.458-0.611c2.206,0,3.867,0.483,4.982,1.451
			c1.114,0.967,1.7,2.258,1.756,3.873l-3.549,0.156c-0.151-0.903-0.478-1.553-0.977-1.948c-0.5-0.396-1.249-0.594-2.248-0.594
			c-1.031,0-1.839,0.212-2.422,0.636c-0.376,0.271-0.563,0.635-0.563,1.091c0,0.416,0.176,0.771,0.527,1.067
			c0.447,0.375,1.534,0.767,3.261,1.175s3.004,0.829,3.831,1.265c0.827,0.436,1.475,1.031,1.942,1.787
			c0.467,0.755,0.701,1.688,0.701,2.799c0,1.007-0.28,1.951-0.84,2.83c-0.56,0.879-1.351,1.533-2.373,1.96
			c-1.023,0.427-2.299,0.641-3.825,0.641c-2.222,0-3.929-0.513-5.119-1.541C252.206,106.478,251.495,104.981,251.264,103.015z"/>
	</g>
</svg>
