<svg version="1.1" id="Layer_1" xmlns="http://www.w3.org/2000/svg" xmlns:xlink="http://www.w3.org/1999/xlink" x="0px" y="0px"
	 width="110px" height="110px" viewBox="0 0 110 110" style="enable-background:new 0 0 110 110;" xml:space="preserve">
<g>
	<g>
		<polygon style="fill:#FFFFFF;" points="11.893,92.076 54.938,6.133 97.836,92.076 		"/>
		<g>
			<linearGradient id="SVGID_1_" gradientUnits="userSpaceOnUse" x1="21.5889" y1="37.249" x2="88.4346" y2="104.0948">
				<stop  offset="0" style="stop-color:#C1403F"/>
				<stop  offset="0.5911" style="stop-color:#ED2437"/>
				<stop  offset="1" style="stop-color:#EB533A"/>
			</linearGradient>
			<path style="fill:url(#SVGID_1_);" d="M16.21,94.6C30.559,65.952,44.907,37.304,59.256,8.656c-2.878,0-5.756,0-8.635,0
				C64.92,37.304,79.22,65.952,93.519,94.6c1.439-2.508,2.878-5.016,4.317-7.523c-28.647,0-57.295,0-85.943,0
				c-6.449,0-6.449,10,0,10c28.648,0,57.296,0,85.943,0c3.979,0,5.978-4.197,4.317-7.523C87.854,60.905,73.555,32.257,59.256,3.609
				c-1.631-3.267-7.002-3.26-8.635,0C36.272,32.257,21.924,60.905,7.575,89.553C4.696,95.301,13.322,100.366,16.21,94.6z"/>
		</g>
	</g>
	<g>
		<linearGradient id="SVGID_2_" gradientUnits="userSpaceOnUse" x1="42.2788" y1="44.8062" x2="67.3638" y2="69.8912">
			<stop  offset="0" style="stop-color:#CA3F3E"/>
			<stop  offset="0.5911" style="stop-color:#E41D3C"/>
			<stop  offset="1" style="stop-color:#EB533A"/>
		</linearGradient>
		<path style="fill:#ED1C24;stroke:url(#SVGID_2_);stroke-miterlimit:10;" d="M53.021,67.973l-2.52-29.091
			c-0.216-2.304,2.088-3.888,4.32-3.888s4.536,1.584,4.32,3.888l-2.521,29.091H53.021z M54.821,71.717
			c2.232,0,4.248,1.799,4.248,4.104s-1.944,4.105-4.248,4.105c-2.305,0-4.249-1.801-4.249-4.105S52.589,71.717,54.821,71.717z"/>
	</g>
</g>
</svg>
