<svg version="1.1" id="Layer_1" xmlns="http://www.w3.org/2000/svg" xmlns:xlink="http://www.w3.org/1999/xlink" x="0px" y="0px"
	 width="110px" height="110px" viewBox="0 0 110 110" style="enable-background:new 0 0 110 110;" xml:space="preserve">
<g>
	<g>
		<polygon style="fill:#FFFFFF;" points="11.893,91.076 54.938,5.133 97.836,91.076 		"/>
		<g>
			<path style="fill:#ED1C24;" d="M16.21,93.6C30.559,64.952,44.907,36.304,59.256,7.656c-2.878,0-5.756,0-8.635,0
				C64.92,36.304,79.22,64.952,93.519,93.6c1.439-2.508,2.878-5.016,4.317-7.523c-28.647,0-57.295,0-85.943,0
				c-6.449,0-6.449,10,0,10c28.648,0,57.296,0,85.943,0c3.979,0,5.978-4.197,4.317-7.523C87.854,59.905,73.555,31.257,59.256,2.609
				c-1.631-3.267-7.002-3.26-8.635,0C36.272,31.257,21.924,59.905,7.575,88.553C4.696,94.301,13.322,99.366,16.21,93.6z"/>
		</g>
	</g>
	<g>
		<path style="fill:#ED1C24;" d="M53.021,66.973l-2.52-29.091c-0.216-2.304,2.088-3.888,4.32-3.888s4.536,1.584,4.32,3.888
			l-2.521,29.091H53.021z M54.821,70.717c2.232,0,4.248,1.799,4.248,4.104s-1.944,4.105-4.248,4.105
			c-2.305,0-4.249-1.801-4.249-4.105S52.589,70.717,54.821,70.717z"/>
	</g>
</g>
</svg>
