<svg version="1.1" id="Layer_1" xmlns="http://www.w3.org/2000/svg" xmlns:xlink="http://www.w3.org/1999/xlink" x="0px" y="0px"
	 width="110px" height="110px" viewBox="0 0 110 110" style="enable-background:new 0 0 110 110;" xml:space="preserve">
<polygon style="fill:#FFFFFF;stroke:#000000;stroke-miterlimit:10;" points="35.394,101.167 8.364,74.138 8.364,35.911 35.394,8.88 
	73.622,8.88 100.651,35.911 100.651,74.138 73.622,101.167 "/>
<linearGradient id="SVGID_1_STOP" gradientUnits="userSpaceOnUse" x1="78.1035" y1="95.6982" x2="30.9106" y2="13.9578">
	<stop  offset="0" style="stop-color:#F26A6B"/>
	<stop  offset="0.5419" style="stop-color:#EF3D3E"/>
</linearGradient>
<polygon style="fill:url(#SVGID_1_STOP);stroke:#000000;stroke-miterlimit:10;" points="36.292,98.805 10.53,73.045 10.53,36.613 
	36.292,10.852 72.725,10.852 98.484,36.613 98.484,73.045 72.725,98.805 "/>
<g>
	<path style="fill:#FFFFFF;" d="M20.5,61.542c1.262,0.727,3.156,1.356,5.143,1.356c2.494,0,3.882-1.168,3.882-2.904
		c0-1.608-1.073-2.556-3.787-3.533c-3.503-1.262-5.743-3.124-5.743-6.185c0-3.472,2.903-6.122,7.51-6.122
		c2.304,0,4.008,0.505,5.112,1.073l-0.946,3.124c-0.758-0.41-2.24-1.01-4.229-1.01c-2.461,0-3.535,1.326-3.535,2.557
		c0,1.641,1.231,2.398,4.071,3.502c3.692,1.388,5.491,3.25,5.491,6.311c0,3.409-2.588,6.374-8.078,6.374
		c-2.241,0-4.576-0.63-5.744-1.326L20.5,61.542z"/>
	<path style="fill:#FFFFFF;" d="M41.042,47.751h-6.059v-3.25h16.062v3.25h-6.121V65.77h-3.881V47.751z"/>
	<path style="fill:#FFFFFF;" d="M71.525,54.915c0,7.13-4.323,11.202-10.193,11.202c-5.996,0-9.782-4.575-9.782-10.824
		c0-6.532,4.103-11.139,10.099-11.139C67.864,44.154,71.525,48.856,71.525,54.915z M55.652,55.23c0,4.324,2.178,7.763,5.901,7.763
		c3.755,0,5.87-3.472,5.87-7.921c0-4.007-1.99-7.794-5.87-7.794C57.704,47.278,55.652,50.844,55.652,55.23z"/>
	<path style="fill:#FFFFFF;" d="M74.87,44.785c1.387-0.252,3.313-0.441,5.933-0.441c2.839,0,4.922,0.599,6.278,1.735
		c1.264,1.042,2.083,2.714,2.083,4.702c0,2.019-0.631,3.691-1.83,4.827c-1.547,1.546-3.977,2.272-6.722,2.272
		c-0.726,0-1.389-0.03-1.893-0.125v8.014h-3.85V44.785z M78.72,54.694c0.473,0.126,1.104,0.157,1.893,0.157
		c2.903,0,4.671-1.419,4.671-3.913c0-2.366-1.642-3.628-4.324-3.628c-1.072,0-1.83,0.095-2.239,0.189V54.694z"/>
</g>
</svg>
