<svg version="1.1" id="Layer_1" xmlns="http://www.w3.org/2000/svg" xmlns:xlink="http://www.w3.org/1999/xlink" x="0px" y="0px"
	 width="110px" height="110px" viewBox="0 0 110 110" enable-background="new 0 0 110 110" xml:space="preserve">
<g>
	<g>
		<linearGradient id="SVGID_1_" gradientUnits="userSpaceOnUse" x1="20.1465" y1="24.1191" x2="68.0854" y2="107.1519">
			<stop  offset="0" style="stop-color:#FDC70C"/>
			<stop  offset="0.3498" style="stop-color:#FDC70C"/>
			<stop  offset="0.3642" style="stop-color:#FEC80D"/>
			<stop  offset="0.7824" style="stop-color:#FFE52E"/>
			<stop  offset="1" style="stop-color:#FFF33B"/>
		</linearGradient>
		<polygon fill="url(#SVGID_1_)" points="11.85,90 54.896,4.056 97.793,90 		"/>
		<g>
			<path d="M14.44,91.514C28.789,62.866,43.137,34.218,57.486,5.57c-1.728,0-3.454,0-5.181,0
				c14.299,28.648,28.598,57.296,42.897,85.943c0.864-1.504,1.728-3.009,2.591-4.514c-28.647,0-57.295,0-85.943,0
				c-3.869,0-3.869,6,0,6c28.648,0,57.296,0,85.943,0c2.388,0,3.587-2.519,2.591-4.514C86.084,59.838,71.785,31.19,57.486,2.542
				c-0.979-1.96-4.202-1.956-5.181,0C37.957,31.19,23.608,59.838,9.259,88.486C7.532,91.935,12.707,94.975,14.44,91.514z"/>
		</g>
	</g>
	<g>
		<path d="M52.978,65.896l-2.52-29.091c-0.216-2.304,2.088-3.888,4.32-3.888s4.536,1.584,4.32,3.888l-2.521,29.091H52.978z
			 M54.778,69.64c2.232,0,4.248,1.8,4.248,4.104c0,2.304-1.944,4.104-4.248,4.104c-2.305,0-4.249-1.801-4.249-4.104
			C50.529,71.439,52.546,69.64,54.778,69.64z"/>
	</g>
</g>
</svg>
