<svg version="1.1" id="Layer_1" xmlns="http://www.w3.org/2000/svg" xmlns:xlink="http://www.w3.org/1999/xlink" x="0px" y="0px"
	 width="110px" height="110px" viewBox="0 0 110 110" style="enable-background:new 0 0 110 110;" xml:space="preserve">
<g>
	<g>
		<polygon style="fill:#FFF200;" points="11.85,89 54.896,3.056 97.793,89 		"/>
		<g>
			<path d="M14.008,90.262C28.357,61.614,42.706,32.966,57.054,4.318c-1.438,0-2.878,0-4.317,0
				c14.299,28.648,28.598,57.296,42.898,85.944c0.719-1.254,1.438-2.508,2.158-3.762c-28.647,0-57.295,0-85.943,0
				c-3.224,0-3.224,5,0,5c28.648,0,57.296,0,85.943,0c1.99,0,2.989-2.099,2.158-3.762C85.652,59.09,71.354,30.442,57.054,1.794
				c-0.814-1.633-3.5-1.63-4.317,0C38.388,30.442,24.04,59.09,9.691,87.738C8.251,90.612,12.564,93.146,14.008,90.262z"/>
		</g>
	</g>
	<g>
		<path d="M52.978,64.896l-2.52-29.091c-0.216-2.304,2.088-3.888,4.32-3.888s4.536,1.584,4.32,3.888l-2.521,29.091H52.978z
			 M54.778,68.64c2.232,0,4.248,1.8,4.248,4.104c0,2.304-1.944,4.104-4.248,4.104c-2.305,0-4.249-1.801-4.249-4.104
			C50.529,70.439,52.546,68.64,54.778,68.64z"/>
	</g>
</g>
</svg>